<svg width="100" height="46" viewBox="0 0 100 46" fill="none" xmlns="http://www.w3.org/2000/svg">
<path fill-rule="evenodd" clip-rule="evenodd" d="M71.7143 43.6939C68.3469 43.6939 67.6735 42.6939 67.6735 37.7143V9.71429C67.6735 7 67.7143 5.73469 67.8367 3.81633C67.9388 2.08163 67.9388 1.7551 67.9388 1.53061C67.9388 0.959185 67.551 0.551022 67 0.551022C66.8367 0.551022 66.6735 0.612246 66.4694 0.673471L66.4286 0.693879C64.2449 1.77551 61.0204 2.40816 56.2653 2.65306C55.7143 2.71429 55.3673 3.04082 55.3673 3.53061C55.3673 4.06123 55.7143 4.40816 56.2449 4.40816L58.1224 4.40816C60.2041 4.40816 60.3265 4.40816 60.3265 12.7551C60.3265 16.102 60.4082 18.4082 60.6122 20.7551C58.5918 17.2653 55.2449 16.7143 53.3265 16.7143C45.5918 16.7143 39.551 23.5714 39.551 32.3265C39.551 40.2449 44.9388 46 52.3878 46C56.1225 46 58.9796 44.0816 60.6531 40.5306C60.5306 41.4082 60.4694 42.1837 60.4694 42.9184C60.4694 44.7551 61.1633 45.4694 62.9184 45.4694H71.5714C72.2857 45.4694 72.6122 45.0204 72.6122 44.5918C72.6531 44.1429 72.2857 43.6939 71.7143 43.6939ZM60.7143 31.0612C60.7143 37.3878 58.5918 43.7551 53.8367 43.7551C49.102 43.7551 47.4286 37.6531 47.4286 31.9388C47.4286 20.7959 50.8776 18.449 53.7755 18.449C58.3061 18.449 60.7143 22.2653 60.7143 29.4694V31.0612Z" fill="white"/>
<path fill-rule="evenodd" clip-rule="evenodd" d="M95.2246 20.7551C92.4899 18.1837 88.9593 16.7143 85.5511 16.7143C82.143 16.7143 78.6123 18.1837 75.8776 20.7551C72.8981 23.5714 71.245 27.3265 71.245 31.3673C71.245 40.102 78.6328 45.9796 85.5511 45.9796C92.4491 45.9796 99.8572 40.102 99.8572 31.3673C99.8572 27.3265 98.2246 23.551 95.2246 20.7551ZM90.4695 40.551C89.8368 41.9184 88.3674 44.2245 85.5511 44.2245C82.7348 44.2245 81.2654 41.9184 80.6327 40.551C79.6532 38.2857 79.143 35.102 79.143 31.3673C79.143 28.7347 79.4083 24.9796 80.6327 22.1224C81.2654 20.7551 82.7348 18.449 85.5511 18.449C88.3674 18.449 89.8368 20.7551 90.4695 22.1224C91.694 24.9796 91.9593 28.7347 91.9593 31.3673C91.9593 35.1224 91.4491 38.2857 90.4695 40.551Z" fill="white"/>
<path fill-rule="evenodd" clip-rule="evenodd" d="M41.6123 43.5714C38.9388 43.2041 38.1633 42.6122 35.9592 37.102L22.1021 3.18367C21.8572 2.59184 21.4694 2.4898 21.245 2.4898C20.9184 2.4898 20.6123 2.7347 20.4286 3.18367L10.9184 28.1429C10.6531 28.2245 10.3266 28.4082 9.93884 28.7347C8.40822 29.9592 2.6123 30.551 1.5919 29.8163C0.571488 29.0816 0.510264 29.449 0.285774 29.3878C0.0612842 29.3061 1.22455 30.7755 1.51026 30.6939C1.79598 30.6122 2.44904 30.9796 2.95924 31.4286C3.46945 31.8571 4.04088 31.8571 4.04088 31.8571C4.91843 31.7143 5.06128 32.3673 4.69394 32.7959C4.32659 33.2245 4.69394 33.449 4.69394 33.449C5.57149 33.2245 5.77557 32.8775 7.22455 32.8775C7.89802 32.8775 8.77557 32.1429 9.53067 31.3469C8.83679 32.7755 8.06128 34.4694 7.89802 35.1429C7.57149 36.4286 6.38781 39.0816 6.30618 40.2041C6.22455 41.3265 4.1021 43.7755 3.1021 44.0408C1.6123 44.4286 1.73475 45.1633 1.73475 45.1633C2.1021 47.3265 9.73475 42.8571 10.5103 42.3265C11.2858 41.7959 10.9184 41.2041 10.4694 40.7959C10.0205 40.3878 9.51026 38.7347 9.87761 36.9592C10.0001 36.3673 10.2858 35.3265 10.6123 34.1837C10.8368 34.1837 11.0613 34.2041 11.2858 34.2857C11.5919 34.3469 11.8572 34.4694 12.0817 34.6531C12.1429 34.6327 12.1225 34.5918 12.1021 34.551C12.0205 34.4286 11.9388 34.3061 11.8572 34.1633C11.6531 33.9592 11.4286 33.7959 11.1837 33.6531C11.0613 33.6122 10.9592 33.5102 10.8368 33.4694C11.3878 31.5714 11.9797 29.6327 12.1225 29.2245L13.4082 29.2653H24.245L27.1837 37.3469C27.8368 39.1224 28.1225 40.2449 28.1225 41.102C28.1225 42.0816 27.796 43.102 25.3674 43.3673C24.2246 43.4694 22.9184 43.5918 21.6939 43.5918C21.1837 43.5918 20.7552 44.0204 20.7552 44.5306C20.7552 45.0408 21.1837 45.4694 21.6939 45.4694C22.3674 45.4694 22.7143 45.4694 24.0817 45.4082C26.245 45.3061 30.1837 45.1837 32.5511 45.1837C34.3062 45.1837 36.5919 45.2449 38.3674 45.3469C39.796 45.4694 40.9388 45.4694 41.5511 45.4694C42.245 45.4694 42.5511 44.9796 42.5511 44.5306C42.5715 44 42.2041 43.6531 41.6123 43.5714ZM9.44904 30.2449C9.26537 30.3265 8.51026 30.7347 7.18373 31.102C5.87761 31.4694 4.38781 31.1224 4.38781 31.1224C4.79598 31.102 6.1021 31.102 7.12251 30.8776C8.16333 30.6531 9.63271 30.1633 9.44904 30.2449ZM13.5307 27.2449L18.5919 13.8163L23.5103 27.2449H13.5307Z" fill="white"/>
<path d="M24.8368 13.9184C24.4898 13.7755 24.1225 13.6531 23.8163 13.4694C22.9592 13 22.3061 12.3673 21.0817 12.3265C20.4694 12.3061 19.8163 12.3469 19.4898 12.7143C19.3061 12.2041 19.0817 11.7143 18.7347 11.3878C18.3674 11.0612 17.9388 10.8571 17.4082 10.6735C16.9184 10.5102 16.4082 10.3265 15.9592 10.102C15.7551 9.97959 15.5715 9.81633 15.3674 9.67347C15.1837 9.53061 14.9388 9.34694 14.7143 9.30612C14.5102 9.26531 14.3878 9.42857 14.2449 9.51021C13.898 9.7347 13.5919 9.93878 13.1429 10.0612C12 10.4082 10.7143 10.6327 9.89798 11.2653C9.51023 11.5714 9.10206 12.0408 9.36737 12.7551C9.14288 12.5918 8.87757 12.449 8.57145 12.4082C8.22451 12.3469 7.85717 12.4694 7.57145 12.5714C7.00002 12.7959 6.51023 13.102 6.00002 13.3878C5.51023 13.6735 5.08166 14.0204 4.55104 14.3061C4.1837 14.5102 3.77553 14.7143 3.32655 14.8776C3.06125 14.9796 2.79594 15 2.85717 15.3265C2.87757 15.551 3.02043 15.7755 3.10206 15.9796C3.38778 16.6735 3.32655 17.5102 3.32655 18.3878C3.32655 19.5918 3.75513 20.449 4.32655 21C3.71431 21.7959 2.9388 22.6939 2.91839 24.0408C2.91839 24.2857 2.9388 24.5102 2.97962 24.7551C3.02043 24.9592 3.02043 25.2653 3.10206 25.4286C3.1837 25.5714 3.34696 25.5306 3.51023 25.5306C3.59186 25.5306 3.67349 25.551 3.75513 25.5714C4.81635 25.8367 5.48982 26.4898 6.32655 27C6.79594 27.2857 7.32655 27.551 8.00002 27.5918C8.75513 27.6327 9.26533 27.2857 9.81635 27.0612C9.77553 28.5102 11 28.7551 12 29.1633C12.5102 29.3673 13.0204 29.551 13.4694 29.7959C13.8163 29.9796 14.1225 30.2245 14.3878 30.4898C14.5306 30.6327 14.6531 30.8163 14.898 30.7347C15.1633 30.6327 15.4082 30.4082 15.6531 30.2653C16.4286 29.7959 17.3266 29.4898 18.3061 29.1633C18.9388 28.9592 19.4898 28.6939 19.9388 28.3061C20.3674 27.9388 20.7551 27.4694 20.8368 26.7755C21.9592 26.2245 22.9184 25.4286 24.3878 25.2245C24.5919 25.2041 24.8368 25.2041 25.0204 25.1224C25.2857 25.0204 25.2449 24.6939 25.2245 24.3265C25.1837 23.6327 25 23.0816 24.8776 22.4898C24.7143 21.6327 24.7551 20.6735 24.2449 20.2041C24.551 19.898 24.7755 19.5306 24.9184 19.0816C25.1021 18.3878 24.8368 17.3469 24.9184 16.5306C24.9388 16.2653 24.9796 16 25 15.7347C25.0204 15.4694 25.0204 15.1837 25.0817 14.9388C25.1225 14.7347 25.2653 14.4286 25.2245 14.2041C25.1837 14.0204 25.0204 13.9796 24.8368 13.9184Z" fill="#00688F"/>
<path d="M24.8368 13.9184C24.4898 13.7755 24.1225 13.6531 23.8163 13.4694C22.9592 13 22.3061 12.3673 21.0817 12.3265C20.4694 12.3061 19.8163 12.3469 19.4898 12.7143C19.3061 12.2041 19.0817 11.7143 18.7347 11.3878C18.3674 11.0612 17.9388 10.8571 17.4082 10.6735C16.9184 10.5102 16.4082 10.3265 15.9592 10.102C15.7551 9.97959 15.5715 9.81633 15.3674 9.67347C15.1837 9.53061 14.9388 9.34694 14.7143 9.30612C14.5102 9.26531 14.3878 9.42857 14.2449 9.51021C13.898 9.7347 13.5919 9.93878 13.1429 10.0612C12 10.4082 10.7143 10.6327 9.89798 11.2653C9.51023 11.5714 9.10206 12.0408 9.36737 12.7551C9.14288 12.5918 8.87757 12.449 8.57145 12.4082C8.22451 12.3469 7.85717 12.4694 7.57145 12.5714C7.00002 12.7959 6.51023 13.102 6.00002 13.3878C5.51023 13.6735 5.08166 14.0204 4.55104 14.3061C4.1837 14.5102 3.77553 14.7143 3.32655 14.8776C3.06125 14.9796 2.79594 15 2.85717 15.3265C2.87757 15.551 3.02043 15.7755 3.10206 15.9796C3.38778 16.6735 3.32655 17.5102 3.32655 18.3878C3.32655 19.5918 3.75513 20.449 4.32655 21C3.71431 21.7959 2.9388 22.6939 2.91839 24.0408C2.91839 24.2857 2.9388 24.5102 2.97962 24.7551C3.02043 24.9592 3.02043 25.2653 3.10206 25.4286C3.1837 25.5714 3.34696 25.5306 3.51023 25.5306C3.59186 25.5306 3.67349 25.551 3.75513 25.5714C4.81635 25.8367 5.48982 26.4898 6.32655 27C6.79594 27.2857 7.32655 27.551 8.00002 27.5918C8.75513 27.6327 9.26533 27.2857 9.81635 27.0612C9.77553 28.5102 11 28.7551 12 29.1633C12.5102 29.3673 13.0204 29.551 13.4694 29.7959C13.8163 29.9796 14.1225 30.2245 14.3878 30.4898C14.5306 30.6327 14.6531 30.8163 14.898 30.7347C15.1633 30.6327 15.4082 30.4082 15.6531 30.2653C16.4286 29.7959 17.3266 29.4898 18.3061 29.1633C18.9388 28.9592 19.4898 28.6939 19.9388 28.3061C20.3674 27.9388 20.7551 27.4694 20.8368 26.7755C21.9592 26.2245 22.9184 25.4286 24.3878 25.2245C24.5919 25.2041 24.8368 25.2041 25.0204 25.1224C25.2857 25.0204 25.2449 24.6939 25.2245 24.3265C25.1837 23.6327 25 23.0816 24.8776 22.4898C24.7143 21.6327 24.7551 20.6735 24.2449 20.2041C24.551 19.898 24.7755 19.5306 24.9184 19.0816C25.1021 18.3878 24.8368 17.3469 24.9184 16.5306C24.9388 16.2653 24.9796 16 25 15.7347C25.0204 15.4694 25.0204 15.1837 25.0817 14.9388C25.1225 14.7347 25.2653 14.4286 25.2245 14.2041C25.1837 14.0204 25.0204 13.9796 24.8368 13.9184ZM21.7347 13.8367C21.5919 14.6122 22.0612 15.1837 22.1021 15.9184C22.1429 16.6735 21.8572 17.2857 21.5919 17.8163C21.2653 17.5918 20.9388 17.3265 20.4898 17.2653C20.9184 17.4082 21.2449 17.6735 21.4286 18.0612C21.3061 18.2857 21.1429 18.4898 21 18.7347C20.8776 18.9592 20.7755 19.2245 20.6123 19.4286C18.9592 19.2449 17.6735 19.9184 16.6735 20.6122C15.8572 21.1837 15.2245 21.9184 14.7551 22.7347C14.6939 22.6735 14.6327 22.5918 14.5715 22.5306C14.8163 21.898 15.2041 21.3878 15.5919 20.898C15.9796 20.4082 16.449 19.9592 16.9388 19.5714C17.4286 19.1837 18.0204 18.8367 18.5306 18.449C18.7755 18.2653 19.0408 18.0612 19.2449 17.8163C19.347 17.6939 19.4082 17.5306 19.449 17.3673C19.5102 17.2041 19.5715 17.0408 19.551 16.8571C19.5306 17.0204 19.3674 17.1429 19.2857 17.2653C19.3061 17.1224 19.3061 16.9388 19.2857 16.7551C19.2449 16.8571 19.2041 16.9796 19.1633 17.0816C19.1633 16.9388 19.1837 16.6939 19.1225 16.551C19.2857 16.449 19.5102 16.5102 19.6735 16.4286C19.9388 16.2857 19.6939 15.7755 19.6735 15.5102C19.8776 15.7959 20.0408 16.2245 19.9796 16.7143C20.1225 16.2857 20 15.6327 19.8163 15.3061C19.9592 15.4694 20.1021 15.7347 20.1837 15.9592C20.1633 15.5102 19.9796 15.1429 19.7755 14.8571C20 14.9592 20.1633 15.1225 20.3061 15.3061C20.2041 15.102 20.0817 14.9388 19.9592 14.7551C20.1429 14.8367 20.3061 14.9796 20.449 15.1225C20.3266 14.8776 20.1633 14.6735 20.0408 14.4694C20.2449 14.4898 20.3674 14.6122 20.4898 14.7347C20.4286 14.6122 20.3674 14.5102 20.2857 14.4286C20.5102 14.4286 20.6327 14.5306 20.7755 14.6122C20.6735 14.4694 20.5306 14.3673 20.449 14.1837C20.5919 14.2041 20.6939 14.2653 20.7959 14.3265C20.7347 14.2245 20.6123 14.1224 20.551 14.0408C20.7143 14.0612 20.8368 14.0816 20.9592 14.1429C20.7755 13.9796 20.4694 13.8163 20.1429 13.9388C20.1633 13.9796 20.1633 14.0204 20.1837 14.0612C20.0817 14.102 20.0204 14.0204 19.9388 14.0204C19.9796 14.102 20.0612 14.102 20.0817 14.2041C19.9796 14.1633 19.8368 14.1429 19.7143 14.1429C19.7143 14.2041 19.7959 14.2449 19.8163 14.3061C19.6939 14.3265 19.6327 14.2653 19.551 14.2449C19.551 14.3061 19.6327 14.3673 19.6531 14.4694C19.5102 14.4082 19.3674 14.3061 19.1837 14.2857C19.4694 13.9592 19.9592 13.6735 20.4694 13.4898C20.0408 13.5306 19.6735 13.7755 19.3266 13.9184C19.5102 13.7347 19.7347 13.5918 19.9796 13.4694C19.6123 13.5714 19.2653 13.7347 18.9592 13.9388C19.0817 13.7755 19.2857 13.6531 19.4694 13.5306C19.2041 13.6122 18.9388 13.7551 18.7143 13.898C18.6735 13.898 18.6531 13.8571 18.6327 13.8367C19.1021 13.4286 20.2653 13.0612 20.9592 13.4286C20.551 13.5306 20.2245 13.7143 19.9184 13.9184C20.3674 13.6735 21.2653 13.5306 21.7347 13.8367ZM18.2041 21.8571C18.4082 21.6531 18.5306 21.3878 18.6735 21.1224C18.4694 21.3469 18.2245 21.5306 17.9796 21.7143C17.898 21.7755 17.8163 21.8571 17.7143 21.8571C17.8572 21.6531 18.1225 21.449 18.2245 21.1429C17.9796 21.4082 17.6735 21.6327 17.347 21.8163C17.449 21.6327 17.6123 21.4694 17.6939 21.2449C17.1633 21.7143 16.6531 22.2857 16.0204 22.6939C16.1429 22.5102 16.3266 22.3061 16.4694 22.1429C16.2653 22.2653 16.0408 22.4286 15.8368 22.5918C15.9796 22.3469 16.2449 22.1633 16.4286 21.9184C16.1633 22.0816 15.9184 22.3265 15.6531 22.5102C15.8776 22.1837 16.1225 21.898 16.3878 21.6122C16.1429 21.7959 15.9184 21.9796 15.6939 22.1837C15.9184 21.8367 16.2857 21.5306 16.5919 21.2245C16.2653 21.4082 16 21.6531 15.7143 21.8776C16.7551 20.898 17.8776 19.9388 19.7755 19.6939C19.7347 20.8367 19.1837 21.5306 18.5715 22.1633C18.5306 22.1429 18.4898 22.102 18.449 22.0816C18.6735 21.8571 18.8572 21.5306 19.0204 21.2245C19.1633 20.9796 19.3061 20.7143 19.347 20.4286C19.1021 21.0816 18.7143 21.5306 18.2041 21.8571ZM13.9796 23.0408C13.551 22.7551 13.1837 22.3878 12.6123 22.2449C12.9184 22.4286 13.2653 22.6327 13.5306 22.8776C13.2857 22.7755 13.0204 22.5714 12.7143 22.4898C13.0612 22.7143 13.449 22.9388 13.7755 23.2041C13.3061 23.0204 12.898 22.7143 12.3878 22.5714C12.7551 22.7959 13.1225 23.0816 13.4898 23.3265C12.9796 23.1837 12.5715 22.8571 12.0408 22.6939C12.3674 22.9388 12.7347 23.1837 13.0817 23.4286C12.2857 23.2041 11.5715 22.8163 10.7755 22.551C11.4286 22.8571 12 23.2245 12.6327 23.551C11.1633 23.2041 10.0204 22.4286 9.04084 21.551C10.7959 21.4286 12.1429 21.7347 13.3266 22.2653C12.898 22 12.4898 21.6122 11.9388 21.449C11.347 21.2857 10.6735 21.2041 9.89798 21.2041C8.87757 21.2041 7.73472 21.3878 7.16329 20.8776C7.24492 20.4898 7.24492 20.0816 7.449 19.8163C7.61227 19.5714 7.91839 19.3061 8.22451 19.1837C8.06125 19.1429 7.91839 19.2857 7.79594 19.3673C7.38778 19.6327 7.02043 20.0612 6.89798 20.5918C6.48982 20.0816 6.26533 19.4082 6.10206 18.6327C5.95921 17.8776 5.71431 17.102 5.57145 16.3878C6.10206 16.2245 6.63268 16.4082 6.91839 16.6735C6.65308 16.4082 6.40819 16.102 5.97961 16C6.73472 15.2653 7.6939 14.7551 8.91839 14.4286C8.34696 14.7347 7.63268 14.9388 7.1837 15.3673C7.46941 15.2041 7.77553 15.0612 8.14288 14.9796C7.9388 15.102 7.73472 15.2041 7.57145 15.3469C7.73472 15.2449 8.00002 15.1633 8.26533 15.1225C8.16329 15.2449 7.91839 15.3469 7.77553 15.4898C7.95921 15.449 8.12247 15.3265 8.34696 15.3061C8.24492 15.4898 8.12247 15.6531 8.00002 15.7959C8.12247 15.7143 8.26533 15.5918 8.40819 15.5102C8.22451 15.8367 8.2041 16.4286 8.32655 16.8776C8.32655 16.6327 8.36737 16.3673 8.42859 16.1633C8.42859 16.551 8.46941 16.898 8.71431 17.0612C8.89798 17.1837 9.16329 17.1633 9.40819 17.2449C9.34696 17.7143 9.36737 18.3878 9.53064 18.7959C9.28574 18.5306 9.16329 18.0816 9.10206 17.6122C9.06125 17.898 9.12247 18.2449 9.16329 18.5102C9.02043 18.3878 8.87757 18.0816 8.81635 17.7959C8.77553 18.0408 8.87757 18.2653 8.9388 18.4694C8.79594 18.3673 8.61227 18.0816 8.53064 17.8163C8.53064 18 8.61227 18.2041 8.67349 18.3673C8.48982 18.2653 8.38778 18.0204 8.28574 17.7959C8.28574 17.9388 8.34696 18.0816 8.38778 18.2041C8.26533 18.0816 8.1837 17.898 8.08166 17.7551C8.12247 18.1837 8.42859 18.4694 8.67349 18.7347C8.91839 19 9.2041 19.2653 9.51023 19.449C10.1633 19.8367 10.9388 20.0816 11.5919 20.449C12.2653 20.8163 12.8368 21.2653 13.3878 21.7551C13.9388 22.2449 14.4694 22.7551 14.898 23.3878C14.7755 23.4286 14.6735 23.4694 14.551 23.4898C14.3266 23.1633 14.0817 22.8367 13.7551 22.6122C13.7959 22.7551 13.898 22.898 13.9796 23.0408ZM13.4898 18.0204C13.5306 17.9388 13.6327 17.8776 13.6735 17.7959C13.4898 17.8571 13.3674 17.9796 13.1429 18.0204C13.2245 17.9184 13.4082 17.7755 13.4898 17.6531C13.347 17.6939 13.2245 17.7755 13.0612 17.7959C13.1837 17.6531 13.3878 17.4898 13.5306 17.3265C13.3266 17.4082 13.1225 17.4898 12.8776 17.5306C13.1429 17.3673 13.4082 17.1837 13.6531 16.9796C13.347 17.102 13.0612 17.2653 12.6735 17.3265C12.8572 17.0612 13.2653 16.9388 13.6123 16.7755C13.9796 16.6122 14.347 16.4898 14.6735 16.3265C14.3878 16.4082 14.1021 16.5306 13.7959 16.6122C13.4898 16.7143 13.1429 16.7551 12.7959 16.8163C12.5715 16.8571 12.4694 17.0612 12.3266 17.1633C12.3878 17.0408 12.4898 16.8776 12.5919 16.7755C12.4082 16.8163 12.3674 17.0204 12.2041 17.102C12.0612 17.1633 11.8368 17.102 11.7347 17.0612C11.6123 17 11.5102 16.898 11.4286 16.8367C12 16.8571 12.5102 16.6939 13.0204 16.551C13.4082 16.449 13.7755 16.3469 14.1225 16.1837C14.4898 16.0408 14.8163 15.9184 15.0817 15.6939C15.2041 15.5918 15.3061 15.4694 15.449 15.3673C15.5919 15.2653 15.7551 15.1429 15.8368 15.0408C16.1021 14.6327 16.2653 13.5306 15.551 13.4898C15.2041 13.4694 15.0408 13.6735 14.7959 13.7347C15.0817 13.7347 15.4082 13.6531 15.6123 13.8163C15.8163 13.9592 15.9796 14.3061 15.8572 14.6531C15.8776 14.3265 15.7347 14.0612 15.5102 13.9592C15.5919 14.1429 15.551 14.4286 15.5102 14.6327C15.4694 14.3878 15.4694 14.0816 15.3266 13.9796C15.3878 14.102 15.4082 14.3061 15.3878 14.4694C15.3266 14.3061 15.2857 14.102 15.1429 14.0408C15.2041 14.1429 15.2449 14.3878 15.1837 14.5306C15.1837 14.3265 15.0612 14.2449 14.9388 14.1837C14.8368 14 14.6735 13.898 14.4898 13.8163C14.6531 13.6531 14.8368 13.4694 15.0817 13.3469C15.2857 13.2449 15.7143 13.2041 15.9184 13.3265C16 13.3878 16.0612 13.551 16.1225 13.6327C16.1837 13.7143 16.2857 13.8367 16.347 13.9184C16.5102 14.0816 16.7143 14.2653 16.7551 14.5306C16.7755 14.7347 16.5919 14.9388 16.4694 15.0612C16.3061 15.2041 16.1429 15.3061 15.9796 15.4082C15.8163 15.5306 15.6735 15.6531 15.5102 15.7959C15.3266 15.9592 15.1225 16.0612 14.9184 16.2041C15.5306 15.9388 16.2449 15.7143 16.6939 15.3061C16.7959 15.5102 16.8368 15.7347 16.898 15.9796C16.0408 17 14.9388 17.7755 14.1429 18.8367C14.3266 18.3673 14.6735 18 14.9592 17.6122C14.7143 17.7959 14.449 18.0612 14.1837 18.2449C14.2857 18.0816 14.4694 17.898 14.5715 17.7143C14.2857 17.898 14.0817 18.102 13.7959 18.2245C13.9388 18 14.2245 17.7959 14.347 17.5306C14.0817 17.7143 13.8163 17.898 13.4898 18.0204ZM11.1021 16.2653C10.7755 15.8776 10.8163 15.0612 10.9592 14.551C10.7551 14.9592 10.6735 15.6327 10.7959 16.2449C10.6327 16.102 10.5919 15.7143 10.5919 15.3878C10.5919 15.0816 10.6939 14.7755 10.7959 14.4898C10.8776 14.2449 11 13.9388 11.1633 13.7551C11.347 13.551 11.6123 13.4286 11.8163 13.2653C12.0408 13.102 12.2245 12.8776 12.4694 12.7551C12.5102 12.7347 12.5715 12.7143 12.6327 12.7347C12.8776 12.7551 13.0817 13.0408 13.2449 13.1837C13.449 13.3673 13.6327 13.5102 13.8368 13.6531C12.7143 13.6531 11.6531 14.0204 11.3878 14.9184C11.3674 15.0204 11.3061 15.2449 11.3266 15.3265C11.347 15.3878 11.4286 15.3878 11.4898 15.4082C11.7347 15.551 11.898 15.8367 12.0204 16.1225C11.9592 16.102 11.8776 16 11.8163 15.9388C11.8368 16.0204 11.8776 16.0816 11.9184 16.1633C11.8368 16.1429 11.7347 16 11.6939 15.8776C11.7143 16 11.7551 16.1429 11.7959 16.2449C11.6123 16.1224 11.4898 15.8776 11.3878 15.6327C11.4082 15.8571 11.551 16.0612 11.6123 16.2653C11.347 16.102 11.2449 15.7755 11.1633 15.4286C11.1633 15.7551 11.2857 16.0204 11.3674 16.2857C11.1021 16 10.9592 15.4898 11.0204 14.9388C10.9388 15.3061 11.0204 15.8776 11.1021 16.2653ZM16.4898 13.2653C16.4082 13.2857 16.347 13.3061 16.2653 13.3265C16.2245 13.2245 16.1633 13.1429 16.1021 13.0816C16.1837 13.0816 16.2449 13.102 16.3266 13.0816C16.1021 12.9388 15.9184 12.7347 15.551 12.7551C15.2857 12.7755 14.9796 12.8163 14.6735 12.8367C14.898 12.8571 15.1225 12.898 15.347 12.9592C15.1021 13.0204 14.7959 12.9388 14.551 13C14.6531 13.0816 14.898 13.0408 15.0204 13.0816C14.8572 13.1429 14.5919 13.1429 14.4082 13.1224C14.5102 13.1837 14.6531 13.1837 14.7551 13.2245C14.6531 13.2449 14.4898 13.2245 14.4082 13.2857C14.449 13.3061 14.5306 13.3061 14.5715 13.3265C14.4694 13.3878 14.3674 13.449 14.2857 13.5102C14.1837 13.4082 14.0612 13.3673 13.9388 13.2857C14.0408 13.2653 14.1837 13.2857 14.3061 13.2857C14.1225 13.1837 13.8163 13.2245 13.6531 13.102C13.8776 13.0612 14.0408 13.102 14.2449 13.1224C13.9796 13.0408 13.7347 12.9388 13.4286 12.9184C13.551 12.898 13.7347 12.8776 13.8572 12.898C13.7143 12.8571 13.5306 12.8367 13.347 12.7959C13.4694 12.7347 13.6939 12.7347 13.8572 12.7143C13.6327 12.6939 13.4082 12.6735 13.2041 12.6327C13.3266 12.5918 13.4898 12.5714 13.6327 12.551C13.6123 12.4898 13.5306 12.5306 13.4898 12.5306C13.347 12.5306 13.1633 12.5102 13.0204 12.5102C13.2245 12.4286 13.551 12.4082 13.7959 12.4286C13.5306 12.3673 13.2449 12.3265 12.898 12.3469C13.1429 12.2245 13.5306 12.2449 13.8163 12.2653C13.5102 12.1837 13.1633 12.1633 12.7755 12.2041C11.9796 12.2857 11.7347 12.9388 11.2041 13.2653C11.6327 12.5918 12.2449 11.9796 13.3061 11.9388C13.8368 11.9184 14.3061 12.102 14.7551 12.2245C15.2653 12.3673 15.7755 12.5306 16.3878 12.4898C16.4898 12.7143 16.449 13.0204 16.4898 13.2653ZM14.6531 15.4082C14.6735 15.3265 14.7551 15.2653 14.7959 15.1837C14.7347 15.2245 14.6735 15.2857 14.5919 15.3265C14.6531 15.2245 14.7347 15.102 14.7551 14.9592C14.7347 14.9796 14.6939 15.0408 14.6531 15.0612C14.3674 15.2449 13.9592 15.551 13.4898 15.4286C13.6939 15.4898 13.9388 15.5306 14.2041 15.5102C14.0408 15.6327 13.7959 15.6939 13.5306 15.7143C13.6735 15.7551 13.898 15.7347 14.0612 15.7143C13.8368 15.8367 13.551 15.9184 13.1837 15.9184C13.3674 15.9388 13.5102 15.9796 13.7143 15.9796C13.449 16.0816 13.1633 16.1633 12.8572 16.2449C12.7551 15.7755 12.6327 15.3469 12.4898 14.9388C12.898 15.1224 13.3674 15.3469 14 15.2653C14.4286 15.2041 14.6531 14.9388 14.8368 14.6122C14.8572 14.8776 14.9388 15.0612 15 15.2857C14.9184 15.3878 14.7959 15.4694 14.6939 15.551C14.7143 15.449 14.8163 15.3673 14.8572 15.2653C14.7959 15.3061 14.7347 15.3673 14.6531 15.4082ZM14.7959 14.3265C14.7755 14.6531 14.2857 14.898 13.9592 14.9592C13.898 14.9592 13.8368 14.9592 13.7959 14.9592C14.0612 14.8571 14.2653 14.7143 14.449 14.5306C14.2857 14.6327 14.0612 14.7551 13.7959 14.7959C13.898 14.7347 14.0204 14.6735 14.1225 14.5918C13.8776 14.6735 13.5715 14.7551 13.2449 14.7755C13.4694 14.6939 13.6939 14.6327 13.8572 14.5102C13.6531 14.6327 13.3061 14.6735 12.9796 14.6531C13.1837 14.551 13.449 14.4898 13.6327 14.3673C13.4694 14.449 13.1837 14.449 12.9592 14.4898C13.0817 14.3878 13.2653 14.3469 13.449 14.2857C12.9592 14.2653 12.5306 14.4082 12.1633 14.5306C12.1021 14.551 12.1021 14.5918 12.0612 14.6122C11.898 14.7551 11.7755 14.9592 11.7347 15.2041C11.8163 15.1225 11.8776 15.0204 11.9796 14.9796C11.9388 15.0408 11.898 15.102 11.8776 15.2041C11.9388 15.1633 12.0204 15.0816 12.1021 15.0612C12.0612 15.1633 11.9796 15.2449 11.9184 15.3469C12 15.2857 12.0817 15.2245 12.2245 15.2041C12.1633 15.3061 12.0408 15.3673 11.9796 15.4898C12.0817 15.4694 12.2041 15.3469 12.3061 15.4082C12.2653 15.4898 12.1633 15.5306 12.1225 15.6122C12.1837 15.6122 12.2653 15.551 12.347 15.551C12.347 15.6122 12.1837 15.6531 12.1633 15.7551C12.2245 15.7551 12.347 15.6939 12.4286 15.7551C12.3878 15.8367 12.2857 15.8571 12.2449 15.9184C12.347 15.898 12.4694 15.9184 12.551 15.9184C12.4898 15.9796 12.3878 16.0204 12.3266 16.0816C12.4082 16.0612 12.5306 16.0204 12.6123 16.0816C12.551 16.1429 12.449 16.1633 12.4082 16.2449C12.4694 16.2449 12.551 16.2041 12.6123 16.2653C12.5919 16.3061 12.5102 16.3061 12.5102 16.3469C12.5306 16.3673 12.5715 16.3673 12.6123 16.3673C12.5306 16.4082 12.4286 16.4082 12.347 16.449C12.3674 16.3878 12.347 16.3469 12.3266 16.2857C12.2449 16.102 12.0817 15.9184 11.9592 15.7551C11.8163 15.5714 11.6531 15.4286 11.5306 15.2857C11.7755 14.3469 12.8572 13.9796 14.1225 13.9796C14.3674 13.9388 14.8163 14.102 14.7959 14.3265ZM15.3266 17.9592C16 17.3061 16.7551 16.6939 17.3266 15.9184C17.5102 15.6531 17.7143 15.3878 17.7143 14.9796C17.7143 14.8367 17.6939 14.6327 17.6123 14.5306C17.6735 14.6327 17.5919 14.7755 17.5306 14.8776C17.4286 14.551 17.3061 14.2653 17.0612 14.102C17.2041 14.2653 17.3674 14.6327 17.2653 14.9592C17.2041 14.8571 17.1633 14.7143 17.1021 14.6122C17.1633 14.7959 17.1837 15.0816 17.1633 15.2857C17.1021 15.1633 17.0817 15.0204 16.9796 14.9388C17.0408 15.0816 17.1633 15.3469 17.0817 15.551C17.0817 15.3673 16.8572 15.1837 16.8368 15C16.8368 14.9388 16.8572 14.8571 16.8776 14.8163C16.9184 14.6735 16.9796 14.5714 16.9592 14.3878C16.898 13.9796 16.551 13.8163 16.3674 13.5306C18.1225 13.5918 19.2653 14.3469 19.449 16.1225C19.1837 16.1225 19.0204 16.2245 18.8572 16.3265C18.5715 16.1225 18.3061 15.7755 17.7551 15.9388C18.2245 15.9184 18.4286 16.1633 18.5715 16.4898C18.2245 16.8163 17.8572 17.0816 17.5306 17.4286C17.4286 17.5306 17.347 17.6939 17.2245 17.7959C16.9592 18.0408 16.5715 18.1429 16.2245 18.3061C15.9184 18.449 15.551 18.6735 15.2857 18.8776C14.6939 19.3265 14.3061 19.8571 14 20.551C14.449 19.7755 15.0612 19.1633 15.9796 18.7755C16.4286 18.5714 16.9184 18.4286 17.3061 18.1633C17.6939 17.898 17.9796 17.6122 18.3061 17.2857C18.4286 17.4898 18.5715 17.6939 18.7143 17.898C18.0204 18.5102 17.1837 18.9796 16.4694 19.5918C15.7755 20.2041 15.1633 20.8776 14.7347 21.7347C14.8368 21.2245 15.0204 20.7551 15.3061 20.3673C15 20.6939 14.7347 21.102 14.5102 21.5102C14.6327 21.0408 14.8776 20.6327 15.1429 20.2653C14.8368 20.5714 14.5715 21.0204 14.3266 21.4082C14.4694 20.8776 14.7347 20.3878 15.0204 19.9592C14.6735 20.3061 14.4286 20.7959 14.1429 21.2449C14.3674 20.5102 14.7755 19.9184 15.2449 19.4082C14.898 19.6939 14.6327 20.0612 14.3674 20.4286C14.1021 20.7959 13.8572 21.1837 13.6735 21.6327C13.6939 21.2653 13.8368 20.9796 13.9388 20.6735C13.7959 20.8367 13.6939 21.0816 13.5919 21.2857C13.6327 20.7551 13.8776 20.3469 14.0612 19.9388C13.7347 20.3469 13.551 20.8776 13.2857 21.3469C13.2449 21.3469 13.1837 21.2857 13.1429 21.2449C13.6735 19.898 14.3878 18.8776 15.3266 17.9592ZM9.59186 12.449C9.59186 12.1224 9.65308 11.9184 9.83676 11.7347C10.6123 10.9184 12.1837 10.7143 13.3878 10.3265C13.898 10.1633 14.2653 9.85714 14.6531 9.61225C14.9592 9.7347 15.2653 9.89796 15.449 10.1837C15.5102 10.3061 15.5715 10.4694 15.6123 10.6327C15.6735 10.8367 15.7551 11.0612 15.7143 11.2653C15.7755 11.0204 15.7959 10.6327 15.7143 10.3469C16.3878 10.7551 17.2245 10.898 17.898 11.2245C18.6327 11.5714 19.0612 12.2653 19.2653 13.1837C19.2449 13.1837 19.2245 13.1837 19.2245 13.2041C19 12.8163 18.7551 12.4694 18.4082 12.2449C18.551 12.4286 18.6939 12.6327 18.7959 12.8571C18.5715 12.6531 18.2449 12.4082 17.9388 12.2449C18.1021 12.4286 18.3061 12.5918 18.449 12.8163C18.0612 12.5102 17.6327 12.2449 17.1225 12.0816C17.5102 12.2857 17.8776 12.5714 18.1633 12.898C17.8776 12.7143 17.5306 12.5306 17.1837 12.3878C17.5102 12.5714 17.8776 12.7959 18.1021 13.102C17.7755 12.898 17.3878 12.7347 17 12.5918C17.3061 12.7551 17.6735 12.9388 17.9388 13.2041C17.6327 13.0408 17.2653 12.898 16.898 12.7551C17.1633 12.9388 17.5306 13.102 17.7755 13.3265C17.5306 13.2245 17.2449 13.102 16.9388 13.0204C17.0408 13.102 17.2041 13.1633 17.3061 13.2449C17.1633 13.2245 16.9592 13.1837 16.7551 13.2041C16.7959 12.8776 16.7551 12.2857 16.4898 12.2041C16.3878 12.1837 16.2245 12.1837 16.0817 12.1837C15.6531 12.1429 15.2653 12.0204 14.8776 11.9388C14.2449 11.7755 13.5715 11.4898 12.8163 11.6939C13.2041 11.5306 13.6939 11.4694 14.2245 11.4694C13.6939 11.3878 12.9184 11.4286 12.449 11.6122C12.7143 11.4694 13.0408 11.3878 13.3878 11.3061C12.551 11.3061 11.9592 11.6327 11.4286 11.9388C11.6735 11.7143 11.9796 11.5306 12.2857 11.3673C11.5715 11.5714 11 11.9796 10.5102 12.4082C10.7959 11.9388 11.3266 11.6122 11.8572 11.3469C11.1837 11.5306 10.5102 11.8163 10.1837 12.3061C10.3266 11.8776 10.6939 11.6531 11.1225 11.4694C10.8572 11.5306 10.6327 11.6531 10.4286 11.7959C10.5715 11.6327 10.7143 11.4082 10.9184 11.2857C10.551 11.449 10.2041 11.5306 9.97962 11.8367C9.87757 11.9796 9.73472 12.0816 9.73472 12.3265C9.83676 12.1429 10.0408 12 10.2653 11.9184C10.0612 12.2041 9.71431 12.4898 9.73472 12.9592C9.73472 13.0612 9.81635 13.1837 9.79594 13.2857C9.77553 13.3469 9.6939 13.3878 9.65308 13.4082C9.63268 13.102 9.59186 12.7551 9.59186 12.449ZM9.63268 13.9592C9.95921 13.5102 10.4286 13.1633 11.0612 13C11.0204 13.1429 11 13.3265 10.9796 13.4898C10.5306 13.9592 10.3266 14.7551 10.449 15.6531C10.2653 15.3469 10.1225 14.6122 10.3061 14.2041C10.0408 14.5306 10.1633 15.2857 10.3061 15.6735C10.449 16.102 10.7143 16.5102 10.9796 16.8163C11.5306 17.449 12.347 17.8367 12.9592 18.3878C13.1021 18.5306 13.2245 18.7143 13.3674 18.8776C13.5102 19.0408 13.6531 19.1837 13.7959 19.3469C13.7143 19.4898 13.6123 19.6327 13.551 19.7755C13.3674 19.6327 13.2245 19.4694 13.0408 19.3061C13.1021 19.449 13.2245 19.5918 13.2857 19.7551C13.0408 19.5918 12.8163 19.3673 12.5715 19.2041C12.7347 19.4286 12.9184 19.6122 13.0817 19.8571C12.7143 19.6122 12.3266 19.2857 11.9388 19.0408C12.2245 19.2857 12.5306 19.551 12.7755 19.8571C12.3266 19.5714 11.8572 19.2449 11.3674 18.9592C11.8368 19.2857 12.3061 19.6939 12.7143 20.1224C12.1021 19.7143 11.5102 19.2857 10.7959 18.9796C11.2041 19.2449 11.6735 19.5306 12.0612 19.8571C11.551 19.6531 11.0612 19.3265 10.4898 19.1633C10.9388 19.4082 11.3878 19.6327 11.7551 19.9388C11.2857 19.7551 10.8368 19.4898 10.347 19.3061C10.6939 19.5102 11.1021 19.7347 11.4286 19.9796C11.1429 19.8571 10.8572 19.7347 10.551 19.5918C10.4694 19.551 10.3266 19.5102 10.2653 19.4694C10.1633 19.3878 10.0817 19.1837 10.0204 19.0408C9.81635 18.6122 9.65308 17.9388 9.77553 17.3265C10.9388 17.6939 11.9592 18.2245 12.7347 19.0204C12.7755 18.9184 12.6735 18.8571 12.6123 18.7959C11.8572 17.9184 10.9184 17.2449 9.63268 16.9592C9.449 16.9184 9.22451 16.898 9.04084 16.8367C8.9388 16.7959 8.87757 16.7143 8.85717 16.5714C8.83676 16.4898 8.79594 16.3469 8.81635 16.2857C8.81635 16.1837 9.06125 15.9592 9.14288 15.898C9.32655 15.7551 9.57145 15.6327 9.81635 15.6939C9.48982 15.5306 8.9388 15.7143 8.79594 15.9184C8.79594 15.2857 9.08166 14.8571 9.36737 14.449C9.36737 14.2653 9.46941 14.0816 9.63268 13.9592ZM3.65308 18.3878C3.65308 18.1633 3.67349 17.9184 3.63268 17.6939C3.59186 17.2857 3.51023 16.8571 3.42859 16.449C3.34696 16.0408 3.28574 15.6327 3.16329 15.2857C3.73472 15.0408 4.77553 14.8571 5.40819 15.0816C5.14288 14.9388 4.79594 14.8163 4.449 14.7551C5.30615 14.2245 6.1837 13.6122 7.16329 13.1224C7.51023 12.9388 7.89798 12.7143 8.38778 12.7143C8.85717 12.7143 9.08166 13.0408 9.4286 13.2041C9.4286 13.2449 9.449 13.2653 9.449 13.2857C9.12247 13.1429 8.6939 12.8571 8.1837 12.898C7.87757 12.9184 7.6939 13.0408 7.449 13.1429C7.75513 13.0408 8.22451 12.9592 8.51023 13.1224C8.14288 13.102 7.75513 13.1837 7.48982 13.3061C7.6939 13.2653 8.00002 13.2041 8.2041 13.2857C7.77553 13.3265 7.48982 13.4694 7.1837 13.6122C7.59186 13.5306 8.14288 13.4898 8.51023 13.6122C7.83676 13.6327 7.30615 13.8163 6.85717 14.0612C7.28574 13.9184 7.91839 13.8367 8.42859 13.9388C8.16329 13.9796 7.9388 14 7.71431 14.0408C7.14288 14.1633 6.73472 14.5918 6.32655 14.898C6.77553 14.5714 7.36737 14.4082 8.06125 14.3061C7.53064 14.5102 7.06125 14.7551 6.63268 15.0408C6.2041 15.3265 5.79594 15.6327 5.51023 16.0408C5.42859 16.0816 5.34696 16.1429 5.24492 16.1837C5.04084 16.2857 5.24492 16.4898 5.34696 16.5714C5.53064 16.7755 5.63268 17 5.6939 17.3673C5.77553 17.8571 5.73472 18.3061 5.81635 18.7959C5.61227 18.3061 5.63268 17.5714 5.40819 17.102C5.67349 17.7551 5.38778 18.8163 5.77553 19.3673C5.61227 19.2041 5.48982 18.9184 5.36737 18.6735C5.38778 19 5.57145 19.2857 5.67349 19.5918C5.449 19.449 5.28574 19.1224 5.14288 18.8367C5.14288 19.1429 5.30615 19.4082 5.40819 19.6735C5.1837 19.5306 5.04084 19.1837 4.85717 18.9592C4.9388 19.2449 5.04084 19.5102 5.16329 19.7755C4.91839 19.5918 4.73472 19.2041 4.55104 18.898C4.63268 19.2653 4.79594 19.6122 4.95921 19.898C4.59186 19.6122 4.36737 19.1224 4.1837 18.6122C4.2041 19.0612 4.38778 19.4286 4.53064 19.7959C4.14288 19.4082 4.02043 18.6327 3.87757 17.9592C3.89798 19.102 4.12247 20.1224 4.75513 20.6122C4.6939 20.6735 4.65308 20.7347 4.57145 20.7959C4.00002 20.2653 3.67349 19.4286 3.65308 18.3878ZM7.79594 27.2245C7.22451 27.1224 6.75513 26.8776 6.34696 26.6122C5.73472 26.2041 5.14288 25.6939 4.38778 25.4082C4.08166 25.3061 3.77553 25.1837 3.40819 25.2041C3.71431 24.5714 4.22451 24.1224 5.00002 23.9184C4.28574 24.0204 3.73472 24.3673 3.32655 24.7755C3.06125 23.2245 3.81635 22.1633 4.51023 21.3265C4.59186 21.2245 4.67349 21.102 4.77553 21C5.16329 20.6327 5.65308 20.3265 6.28574 20.2041C6.28574 20.2245 6.30615 20.2449 6.30615 20.2449C5.08166 20.898 3.91839 21.5918 3.75513 23.2041C3.89798 22.7347 4.10206 22.3469 4.42859 22.0408C4.24492 22.3878 4.04084 22.7143 3.91839 23.102C4.06125 22.8571 4.22451 22.5714 4.449 22.3469C4.449 22.449 4.48982 22.5102 4.51023 22.5918C4.55104 22.449 4.57145 22.2857 4.63268 22.1837C4.67349 22.3469 4.6939 22.4898 4.77553 22.6122C4.73472 22.5102 4.77553 22.3061 4.79594 22.1633C4.85717 22.3469 4.91839 22.5102 5.02043 22.6531C5.00002 22.5102 4.97962 22.3061 5.00002 22.1633C5.10206 22.4694 5.24492 22.7347 5.42859 22.9592C5.32655 22.7551 5.2041 22.4898 5.2041 22.1224C5.40819 22.6531 5.67349 23.102 6.06125 23.449C5.89798 23.1837 5.71431 22.9184 5.61227 22.5714C5.79594 22.7959 6.00002 23 6.16329 23.2449C6.32655 23.4898 6.449 23.7755 6.63268 24C6.40819 23.4898 6.1837 22.9184 5.91839 22.4082C6.46941 22.7551 6.57145 23.551 6.87757 24.1224C7.1837 24.7143 7.57145 25.2245 8.02043 25.6327C7.71431 25.4898 7.449 25.2449 7.2041 25.0204C7.34696 25.3469 7.59186 25.551 7.83676 25.7551C8.08166 25.9592 8.38778 26.1224 8.71431 26.2245C8.449 26.2653 8.14288 26.2449 7.9388 26.1837C8.16329 26.3061 8.449 26.4082 8.73472 26.449C8.48982 26.5306 8.1837 26.5714 7.89798 26.6327C8.16329 26.7143 8.53064 26.6735 8.85717 26.6735C8.36737 26.8367 7.67349 26.9184 7.14288 26.7959C7.61227 26.9796 8.36737 27.0408 8.9388 26.8571C8.71431 26.9796 8.449 27.0612 8.12247 27.102C8.65308 27.1633 9.12247 26.9796 9.53064 26.8367C9.02043 27.0816 8.449 27.3265 7.79594 27.2245ZM7.9388 25.102C7.89798 24.6531 8.10206 24.4286 8.24492 24.1633C8.08166 24.4082 7.85717 24.5918 7.75513 24.898C7.34696 24.4286 7.06125 23.8776 6.81635 23.1633C6.6939 22.8367 6.55104 22.5102 6.32655 22.3061C6.10206 22.102 5.75513 21.9592 5.71431 21.6122C5.67349 21.3469 5.91839 21.1429 6.04084 21C6.1837 20.8571 6.32655 20.7347 6.57145 20.6939C6.59186 20.7143 6.59186 20.7347 6.61227 20.7551C6.51023 20.8776 6.34696 20.9592 6.32655 21.1633C6.26533 21.0816 6.32655 20.9592 6.36737 20.9184C6.24492 20.9388 6.08166 21.0612 6.04084 21.1429C5.89798 21.4082 6.12247 21.7143 6.24492 21.898C6.26533 21.7347 6.30615 21.6122 6.32655 21.4694C6.36737 21.5918 6.36737 21.7755 6.42859 21.8571C6.40819 21.5918 6.449 21.3469 6.59186 21.2449C6.63268 21.449 6.65308 21.6735 6.77553 21.7959C6.75513 21.6122 6.75513 21.4286 6.81635 21.3061C6.87757 21.5306 6.91839 21.7959 7.08166 21.9184C7.04084 21.7755 7.00002 21.5714 7.02043 21.4082C7.12247 21.6327 7.22451 21.8776 7.38778 22.0408C7.34696 21.898 7.30615 21.7143 7.32655 21.551C7.46941 21.7551 7.55104 22.0204 7.73472 22.1837C7.67349 22.0204 7.55104 21.7755 7.59186 21.5306C7.67349 21.7347 7.81635 21.898 7.95921 22.0816C8.06125 22.2449 8.14288 22.4082 8.30615 22.4898C8.16329 22.2653 7.97961 22.0612 7.95921 21.6939C8.22451 22.0816 8.51023 22.449 8.85717 22.7347C8.67349 22.4898 8.46941 22.2245 8.34696 21.898C8.75513 22.4286 9.24492 22.8776 9.81635 23.2449C9.40819 22.898 9.00002 22.4694 8.73472 21.9388C9.22451 22.6939 10.0204 23.1837 10.8368 23.5918C10.2857 23.2041 9.6939 22.8163 9.32655 22.2041C10.4286 23.0816 11.6735 23.8776 13.4694 24C13.5306 24.0612 13.551 24.1837 13.6123 24.2857C13.6123 24.2245 13.5919 24.0816 13.5715 24C14.2041 23.9592 14.6939 23.8367 15.1633 23.6327C15.3266 23.5714 15.449 23.4694 15.6327 23.449C16.5102 23.4082 17.2653 23.6122 17.4898 24.3265C17.4082 23.8163 17.0408 23.5306 16.6939 23.3061C17 23.3469 17.2245 23.449 17.4286 23.6122C17.3878 23.3673 17.1837 23.2653 17.0817 23.1224C17.347 23.1633 17.5102 23.2857 17.6531 23.449C17.5715 23.2245 17.4082 23.102 17.2653 22.9592C17.6123 23.0612 17.8776 23.2449 18.1429 23.449C18.0408 23.2245 17.8368 23.0612 17.7143 22.898C18.0204 23.0612 18.3061 23.2245 18.4898 23.5306C18.4898 23.2857 18.2857 23.1224 18.1837 22.9388C18.4286 23.0408 18.6123 23.2653 18.7347 23.5306C18.6735 22.9592 18.2449 22.4082 17.6327 22.449C17.3266 22.4694 17.1021 22.6531 16.8776 22.7959C16.6735 22.9184 16.449 22.9388 16.2041 23.0204C16.551 22.7755 16.8368 22.551 17.2245 22.3265C17.347 22.2653 17.4898 22.1837 17.6327 22.1633C17.9796 22.1224 18.3061 22.4082 18.4694 22.5918C18.6531 22.7755 18.8163 23.0408 18.9796 23.2653C19.1225 23.4898 19.2857 23.8163 19.2857 24.1633C19.2857 24.2449 19.2857 24.3469 19.2449 24.3878C19.1837 24.4898 18.8163 24.5714 18.6531 24.6327C18.1021 24.898 17.6939 25.3061 17.2449 25.6735C16.9388 25.9388 16.6939 26.2245 16.4082 26.449C16.0612 26.7347 15.6123 26.9388 14.9592 26.9388C14.6531 26.9388 14.3878 26.8571 14.1225 26.7959C13.7959 26.0816 13.8776 24.9184 13.3266 24.449C13.551 24.8367 13.7959 25.3878 13.7755 26C13.7755 26.2245 13.6939 26.4286 13.7143 26.6939C12.7551 26.4694 11.6531 26.3061 10.6327 26.1224C9.59186 25.898 8.48982 25.8367 7.9388 25.102ZM18.2245 28.8571C17.1429 29.2245 16.0612 29.551 15.2449 30.1429C15.2857 29.7959 15.2857 29.3878 15.2857 29C15.2449 29.4898 15.0817 29.8776 14.9592 30.3265C14.8368 30.4898 14.6939 30.2653 14.5715 30.1633C14.3061 29.9388 14.0408 29.6939 13.7347 29.5306C13.3266 29.3061 12.8368 29.102 12.4082 28.9388C11.9592 28.7551 11.4694 28.6122 11.0408 28.3878C10.6327 28.1837 10.2041 27.8776 10.1633 27.2857C10.1429 26.9592 10.2245 26.6531 10.2449 26.3469C10.2857 26.3469 10.3061 26.3469 10.347 26.3673C10.2653 26.7959 10.3266 27.3265 10.551 27.6122C10.4694 27.5918 10.3878 27.4898 10.3061 27.449C10.4082 27.6122 10.449 27.8367 10.5919 27.9796C10.7755 28.1633 11.0817 28.2857 11.3674 28.3469C11.1633 28.2245 10.9388 28.1224 10.8163 27.9184C10.9184 27.9592 11.0204 28.0408 11.1429 28.102C10.9796 27.9388 10.7551 27.7755 10.6735 27.4898C10.9184 27.8367 11.2653 28.0816 11.7347 28.1837C11.347 27.9796 11 27.7551 10.8776 27.2857C11.1021 27.5102 11.3266 27.8163 11.6531 27.9388C11.551 27.8163 11.3674 27.6939 11.2653 27.5306C11.449 27.6531 11.6939 27.7755 11.9184 27.8571C11.7143 27.7143 11.4694 27.5306 11.347 27.2857C11.5715 27.4082 11.8572 27.4694 12.1225 27.5102C11.8776 27.4082 11.6327 27.2857 11.4694 27.102C11.7347 27.1633 11.9796 27.2653 12.3061 27.2653C12.1225 27.1837 11.9184 27.102 11.7347 27.0204C12.1225 27.0408 12.5715 27.0816 13 27.0816C12.4286 26.9796 11.898 26.8367 11.449 26.5918C12.6327 26.7143 13.6735 27.0408 14.7959 27.2449C15.0204 27.4694 15.1429 27.7959 15.2041 28.2041C15.2653 27.8571 15.0817 27.5714 15.0408 27.2449C15.7959 27.2245 16.3061 27 16.6939 26.6531C16.4694 26.9592 16.1633 27.1633 15.8368 27.3469C16.5306 27.0816 17.1021 26.6735 17.5306 26.1224C17.3266 26.5102 17.0204 26.8571 16.6939 27.1429C17.0408 27 17.3266 26.7959 17.6123 26.6122C17.5715 26.7551 17.449 26.8571 17.3674 26.9592C17.551 26.8776 17.7143 26.7347 17.8776 26.6122C17.8776 26.7551 17.7551 26.8571 17.6939 26.9592C17.8572 26.8776 17.9796 26.7959 18.1429 26.7143C18.1429 26.898 18.0204 27 17.9388 27.102C18.0817 27.0204 18.3061 26.9388 18.449 26.8571C18.4286 27.0204 18.3266 27.102 18.2653 27.2041C18.4082 27.1429 18.5306 27.0612 18.6735 27.0204C18.5306 27.3469 18.2041 27.5102 17.9388 27.7143C18.2857 27.5918 18.5715 27.3673 18.9592 27.2653C18.7755 27.5102 18.5306 27.6939 18.3266 27.9184C18.6939 27.6939 19.0817 27.4898 19.4694 27.2857C19.1225 27.6122 18.7347 27.898 18.347 28.2041C18.7959 28.0204 19.2653 27.7959 19.6531 27.551C19.2653 28.0816 18.5306 28.3673 17.8572 28.6531C18.7551 28.4694 19.5102 28.0408 20.0817 27.5306C20.2245 27.3878 20.347 27.2041 20.3878 26.9796C20.449 26.9592 20.5102 26.9388 20.551 26.9184C20.2041 27.9796 19.2857 28.5102 18.2245 28.8571ZM24.5715 22.5306C24.6939 23.1633 24.8776 23.8163 24.9592 24.4898C24.7143 24.2653 24.4898 24.0408 24.2449 23.8163C24.4898 24.102 24.7959 24.3878 24.9184 24.8163C23.3266 24.9592 22.2449 25.6327 21.1225 26.2653C20.7755 26.4694 20.347 26.6939 19.8572 26.7551C18.7347 26.8776 18.2449 26.1837 17.7959 25.5102C17.8163 25.5102 17.8368 25.4694 17.8572 25.4694C18.2857 26 18.8572 26.6122 19.7755 26.551C20.1837 26.5306 20.4082 26.3673 20.6939 26.2245C20.5306 26.2449 20.3674 26.3265 20.1633 26.3469C19.7551 26.3673 19.3878 26.2245 19.0817 26.0816C18.7551 25.9388 18.5102 25.7143 18.3061 25.4898C18.6939 25.8571 19.3266 26.102 20.0204 26.1429C19.551 26.0408 19.1837 25.8367 18.8776 25.5306C19.0204 25.5714 19.1429 25.6939 19.3061 25.7143C19.1633 25.5714 18.9388 25.4082 18.8368 25.1837C18.9592 25.2449 19.0612 25.3265 19.2041 25.3673C19.1429 25.2653 19.0408 25.1837 19.0408 25C19.1225 25.0204 19.2449 25.1224 19.3266 25.1633C19.2449 25.0816 19.1837 24.9184 19.2041 24.7143C19.2653 24.7959 19.3266 24.8571 19.4286 24.898C19.3878 24.8571 19.4082 24.7143 19.3878 24.6327C19.551 24.551 19.6123 24.3061 19.6123 24.102C19.6123 23.3673 19.1429 22.898 18.8776 22.4898C19.1021 22.3878 19.4286 22.3061 19.7551 22.3469C19.5919 22.2653 19.3061 22.2857 19.1225 22.2245C19.4898 22.0612 20.0408 22.0408 20.4082 22.1429C20.2653 22.0408 20.0612 22.0408 19.8776 21.9796C19.6939 21.9388 19.5102 21.8776 19.3266 21.8571C19.7143 21.7551 20.2245 21.8367 20.6327 21.898C21.5715 22.0408 22.4082 22.4082 22.9592 22.9184C22.2653 22.2245 21.3266 21.7347 20.1837 21.5102C20.4898 21.4898 20.7959 21.5306 21.0612 21.5714C20.7347 21.449 20.3674 21.3265 19.9796 21.2653C20.1225 21.2041 20.347 21.2041 20.5306 21.2041C20.347 21.0816 20.0817 21.0612 19.8368 21C19.898 20.9184 20.0612 20.9388 20.1837 20.898C20.1021 20.8571 20.0204 20.8367 19.9184 20.8367C19.9388 20.7959 19.9592 20.7551 19.9592 20.6939C20.0817 20.6531 20.2245 20.6122 20.3878 20.6122C20.2857 20.5714 20.1225 20.5918 20 20.5714C20.2245 20.449 20.6123 20.449 20.8776 20.3673C20.6735 20.3265 20.449 20.3265 20.2245 20.3061C20.5919 20.2041 21.0612 20.1837 21.4694 20.1429C21.2041 20.0816 20.898 20.0816 20.6123 20.0612C21.1633 19.9388 21.8776 19.9592 22.4286 20C21.898 19.8571 21.2245 19.8571 20.6327 19.7959C21.7143 19.6327 22.7755 19.7755 23.449 20.1633C22.8368 19.7143 21.9592 19.551 21.0204 19.4694C21.0408 19.3673 21.1633 19.4082 21.2245 19.4082C21.4898 19.3878 21.7755 19.3673 22.0204 19.3878C22.9796 19.5102 23.7551 19.8571 24.2041 20.551C24.4694 21.0816 24.4286 21.8571 24.5715 22.5306ZM24.6735 15.8776C24.5102 15.7959 24.3061 15.7347 24.0612 15.7755C24.2857 15.8571 24.4898 15.9592 24.6531 16.102C24.5715 16.6531 24.5715 17.3265 24.6531 17.9388C24.7755 18.8776 24.4898 19.4694 24.0612 19.9592C23.7755 19.7143 23.4694 19.4898 23.1021 19.3469C23.1021 19.2857 23.1429 19.2449 23.1225 19.1837C23.0204 19.1837 23 19.3265 22.8776 19.2857C22.898 19.2041 23 19.1224 23 18.9796C22.898 19.0408 22.7551 19.1224 22.6531 19.2041C22.7143 19.0816 22.7959 18.9592 22.8368 18.8163C22.7143 18.9184 22.6327 19.0612 22.4694 19.1224C22.551 18.9796 22.6123 18.8163 22.6735 18.6735C22.551 18.7755 22.449 18.9388 22.2653 19C22.3878 18.7959 22.4694 18.5918 22.5715 18.3878C22.4286 18.5306 22.2857 18.6939 22.1021 18.7959C22.2653 18.4898 22.4082 18.1837 22.5306 17.8367C22.347 18.1429 22.1225 18.449 21.8368 18.6531C22.0204 18.2041 22.347 17.8163 22.4082 17.2653C22.2041 17.8163 21.8368 18.2449 21.449 18.6327C21.6939 18.2857 21.9592 17.898 22.1225 17.4286C22.2857 16.9796 22.449 16.4694 22.4082 15.898C22.3674 15.2041 22.0408 14.7755 22.0204 14.0816C22.2245 14.4286 22.3266 14.898 22.4898 15.2653C22.347 14.9184 22.4082 14.3061 22.2653 13.9184C22.3061 13.9388 22.449 14 22.4898 14.0816C22.449 13.9388 22.347 13.7959 22.3061 13.7143C22.5102 13.7959 22.7143 13.8776 22.8776 14C22.6123 13.7143 22.2857 13.5306 21.9184 13.3469C22.3878 13.449 22.7755 13.7143 23.1429 13.9796C22.8776 13.6531 22.4694 13.3878 22.1225 13.2041C22.6939 13.4286 23.1225 13.7755 23.6939 13.9796C22.7143 13.4898 21.9388 12.6122 20.4082 12.7551C20.2653 12.7755 20.1225 12.7959 20.0204 12.8367C19.8368 12.8776 19.7551 12.9796 19.551 13.0408C19.551 13 19.5306 12.9388 19.551 12.9184C19.8572 12.6939 20.3061 12.6122 20.8163 12.6122C21.7551 12.6122 22.347 12.9388 22.9592 13.3265C23.5715 13.6939 24.1633 14.0204 24.898 14.2653C24.7755 14.7755 24.7551 15.3469 24.6735 15.8776Z" fill="black"/>
</svg>
