<svg width="305" height="151" viewBox="0 0 305 151" fill="none" xmlns="http://www.w3.org/2000/svg">
<path d="M170.674 20.7654C173.68 15.9224 176.519 9.57641 179.525 1.89441C180.193 0.0574056 181.529 -0.443598 183.032 0.391412C188.543 3.06341 191.215 5.06741 191.215 6.57041C191.215 7.73941 189.211 8.57441 185.37 8.90841C181.696 14.2524 178.022 18.9284 173.847 23.1034C177.521 26.1094 179.358 29.1154 179.358 31.9544C179.358 35.4614 177.521 37.2984 174.014 37.2984C172.177 37.2984 171.008 36.1294 170.173 33.7914C168.336 28.6144 165.163 24.2724 160.487 20.7654C159.151 19.5964 158.817 18.5944 159.652 17.0914C160.153 16.4234 161.155 16.4234 163.326 17.2584C166.332 18.4274 168.67 19.5964 170.674 20.7654ZM211.088 97.0844H243.486C245.991 92.9094 247.995 88.2334 249.665 82.8894C250.166 81.2194 251.335 80.5514 253.005 81.0524C260.186 83.0564 263.86 85.0604 263.86 86.5634C263.86 87.7324 261.856 88.4004 257.681 88.7344C255.51 91.4064 252.838 94.2454 249.498 97.0844H287.574L293.419 90.4044C294.421 89.0684 295.757 88.9014 296.926 89.9034C299.264 91.9074 301.602 93.9114 303.94 96.2494C305.109 97.4184 305.109 98.5874 304.441 99.7564C303.773 100.758 302.938 101.259 301.602 101.259H159.485C157.982 101.259 157.147 100.591 156.479 99.2554C155.811 97.9194 156.813 97.0844 158.817 97.0844H207.414C206.245 96.5834 205.577 95.4144 205.076 93.2434C204.074 89.9034 202.237 87.0644 199.064 84.7264C197.728 83.7244 197.394 82.3884 198.563 81.0524C198.897 80.5514 199.732 80.5514 201.235 80.8854C210.253 83.3904 214.762 86.8974 214.762 91.7404C214.762 94.0784 213.426 95.9154 211.088 97.0844ZM286.405 10.0774H269.705V67.8594C269.705 69.5294 268.703 70.5314 267.033 70.5314H263.693C261.856 70.5314 261.021 69.5294 261.021 67.8594V4.56641C261.021 2.5624 262.19 1.7274 264.027 2.39541C266.198 3.2304 268.703 4.39941 271.542 5.90241H286.238L289.077 2.06141C290.079 0.725407 291.415 0.558409 292.918 1.7274C297.928 5.73541 300.433 8.57441 300.433 10.2444C300.433 10.9124 299.932 11.4134 299.097 11.7474L294.922 13.4174C290.413 19.2624 286.238 24.1054 282.063 27.9464C294.421 34.4594 300.6 42.3084 300.6 51.6604C300.6 60.1774 296.592 64.8534 288.409 65.5214C286.906 65.6884 286.238 64.8534 285.57 63.5174C284.234 61.1794 281.228 59.5094 276.051 58.3404C274.548 58.0064 273.713 57.1714 273.713 55.5014C273.713 54.6664 274.715 54.3324 276.385 54.4994C280.226 55.0004 283.566 55.3344 286.572 55.3344C289.912 55.3344 291.749 53.6644 291.749 50.4914C291.749 43.6444 287.24 36.9644 278.222 30.4514C276.719 29.4494 276.552 28.1134 277.554 26.7774L276.385 28.4474L277.387 26.9444C281.228 21.0994 284.234 15.5884 286.405 10.0774ZM192.885 140.337H267.534V129.315H192.885V140.337ZM267.534 114.786H192.885V125.14H267.534V114.786ZM192.384 109.609L194.722 110.611H266.198L270.373 106.269C271.542 105.1 272.711 104.933 274.214 105.935C279.391 109.609 282.23 111.947 282.23 113.45C282.23 114.118 281.562 114.786 280.56 115.454L277.053 117.458V147.518C277.053 149.188 276.051 150.023 274.381 150.023H270.039C268.369 150.023 267.534 149.188 267.534 147.518V144.512H192.885V147.518C192.885 149.188 192.05 150.023 190.213 150.023H185.871C184.201 150.023 183.366 149.188 183.366 147.518V109.275C183.366 107.271 184.535 106.436 186.372 107.104C188.376 107.939 190.38 108.774 192.384 109.609ZM218.436 32.6224H242.651V23.1034H218.436V32.6224ZM242.651 10.0774H218.436V18.9284H242.651V10.0774ZM218.436 36.7974V54.8334C227.12 53.8314 234.969 52.4954 241.315 51.1594C239.979 49.3224 238.142 47.3184 235.637 44.9804C234.301 43.8114 234.301 42.6424 235.303 41.3064C235.804 40.8054 236.639 40.9724 238.142 41.6404C249.498 47.4854 255.176 53.6644 255.176 60.0104C255.176 63.5174 253.673 65.1874 250.5 65.1874C248.496 65.1874 246.993 63.5174 245.824 60.1774C245.323 59.0084 244.655 57.1714 243.653 54.6664C242.484 55.0004 241.649 55.1674 241.315 55.3344C230.293 58.8414 218.77 61.6804 207.247 63.8514C206.412 67.3584 205.41 69.1954 204.408 69.1954C202.571 69.1954 200.901 66.0224 199.231 59.8434C198.73 58.0064 199.398 56.8374 201.235 56.6704L209.752 55.8354V5.5684C209.752 3.56441 210.921 2.72941 212.758 3.3974C215.263 4.23241 217.601 5.06741 219.939 5.90241H240.981L244.488 2.06141C245.49 0.892405 246.826 0.725407 248.162 1.7274C252.671 5.06741 254.842 7.40541 254.842 8.40741C254.842 8.90841 254.675 9.24241 254.007 9.74341L250.667 12.0814V38.4674C250.667 40.3044 249.665 41.1394 247.995 41.1394H245.156C243.486 41.1394 242.651 40.3044 242.651 38.4674V36.7974H218.436ZM192.217 45.3144L193.219 45.1474C194.388 42.9764 195.39 40.8054 196.392 38.8014C197.06 37.1314 198.396 36.7974 199.899 37.4654C205.744 39.9704 208.583 41.8074 208.583 43.3104C208.583 44.4794 206.579 45.3144 202.571 45.6484C195.39 58.6744 185.203 68.6944 172.511 76.0424H225.283V65.1874C225.283 63.5174 226.285 62.5154 228.122 62.6824C236.305 63.3504 240.48 64.6864 240.48 66.6904C240.48 67.8594 238.476 69.0284 234.468 70.1974V76.0424H274.548L280.226 70.1974C281.395 69.0284 282.731 68.8614 283.9 69.8634C285.904 71.5334 287.908 73.3704 290.079 75.5414C291.248 76.7104 291.415 78.0464 290.58 79.2154C290.246 79.8834 289.411 80.2174 287.908 80.2174H175.851C174.515 80.2174 173.513 79.5494 172.845 78.2134L172.01 76.3764C169.004 77.8794 165.998 79.3824 162.992 80.7184C161.489 81.3864 160.487 81.0524 159.485 79.7164C158.984 79.0484 159.652 78.3804 161.155 77.3784C173.179 70.6984 182.865 61.5134 190.38 49.8234C180.861 52.3284 172.01 54.3324 164.161 55.6684C163.326 58.8414 162.324 60.3444 161.322 60.3444C159.652 60.3444 158.149 57.3384 156.98 51.1594C156.646 49.3224 157.481 48.3204 159.318 48.1534C164.829 47.9864 169.171 47.6524 172.344 47.4854C180.026 37.9664 187.04 27.7794 193.553 16.9244C194.388 15.4214 195.724 15.0874 197.227 15.9224C202.571 18.9284 205.243 21.0994 205.243 22.7694C205.243 24.1054 203.072 24.7734 199.064 24.7734C193.386 31.9544 186.372 39.4694 178.022 46.9844L192.217 45.3144Z" fill="white"/>
<path d="M118.57 9.07568C119.572 7.90682 120.908 7.73974 122.244 8.90869C128.088 13.5841 130.927 16.59 130.928 17.7593C130.928 18.5943 130.427 19.2632 129.425 19.9312L125.25 22.937V146.517C125.25 148.187 124.415 149.022 122.578 149.022H117.735C115.898 149.022 115.064 148.187 115.063 146.517V136.163H10.1865V146.517C10.1864 148.187 9.35151 149.022 7.68164 149.022H2.67188C0.835105 149.022 0.000130282 148.187 0 146.517V13.2505C7.81191e-05 11.2467 1.16901 10.4117 3.00586 11.2466C6.34586 12.5826 9.35242 13.9184 11.8574 15.0874H113.56L118.57 9.07568ZM10.1875 131.988H115.063V19.2632H10.1875V131.988Z" fill="white"/>
<path d="M82.498 43.4771C83.6669 42.1414 84.8361 41.9744 86.3389 43.1431C91.5159 47.3181 94.0205 49.9907 94.0205 51.4937C94.0205 52.1616 93.6865 52.6626 93.0186 53.1636L89.1777 55.8354V104.265C89.1777 106.102 88.3428 106.938 86.6729 106.938H82.3311C80.6611 106.938 79.6592 106.102 79.6592 104.265V96.5835H43.5869V105.601C43.5869 107.271 42.752 108.274 41.082 108.274H36.9072C35.2372 108.274 34.2354 107.271 34.2354 105.601V47.1519C34.2354 45.1479 35.5712 44.313 37.4082 44.981C40.581 46.4839 43.0859 47.4858 45.0898 48.6548H78.4902L82.498 43.4771ZM43.5869 92.4087H79.6592V52.8296H43.5869V92.4087Z" fill="#4AF1FF"/>
</svg>
