<svg width="342" height="300" viewBox="0 0 342 300" fill="none" xmlns="http://www.w3.org/2000/svg">
<path d="M25.824 271.33H32.454L29.126 262.984L25.824 271.33ZM39.032 278.376C39.032 278.61 38.902 278.74 38.616 278.74H32.636C32.376 278.74 32.22 278.61 32.22 278.35C32.22 278.142 32.376 278.012 32.636 278.012C33.884 277.96 34.508 277.648 34.508 277.102C34.508 276.686 34.404 276.27 34.248 275.854L32.792 272.318H25.46L24.056 275.984C23.848 276.504 23.77 276.894 23.77 277.128C23.77 277.674 24.368 277.96 25.616 278.012C25.876 278.012 26.032 278.168 26.032 278.428C26.032 278.636 25.902 278.74 25.616 278.74H20.338C20.052 278.74 19.922 278.61 19.922 278.35C19.922 278.142 20.052 278.012 20.338 278.012H20.078C21.326 278.012 22.236 277.336 22.782 275.958L28.97 260.436C29.074 260.228 29.204 260.124 29.438 260.124H29.464C29.698 260.124 29.828 260.228 29.932 260.436L36.25 276.114C36.692 277.206 37.498 277.856 38.642 277.986C38.902 278.012 39.032 278.142 39.032 278.376ZM50.1765 273.722V270.29C50.1765 269.328 49.6305 268.496 48.5905 267.742C47.8365 267.17 47.0045 266.884 46.0945 266.884C44.8985 266.884 43.9365 267.404 43.2085 268.418C42.4805 269.458 42.1425 270.784 42.1425 272.396C42.1425 274.138 42.5585 275.516 43.3645 276.556C44.1185 277.492 45.0545 277.96 46.1985 277.96C47.4465 277.96 48.4605 277.388 49.2665 276.27C49.8645 275.412 50.1765 274.58 50.1765 273.722ZM54.1545 278.376C54.1545 278.61 53.9985 278.74 53.7385 278.74H50.6445C50.3845 278.74 50.2285 278.61 50.2285 278.35L50.1245 276.504C49.1105 278.194 47.6805 279.026 45.8345 279.026C44.3525 279.026 43.1305 278.532 42.1165 277.518C40.9205 276.296 40.2965 274.632 40.2965 272.474C40.2965 270.342 40.9205 268.626 42.1685 267.378C43.2085 266.364 44.4305 265.818 45.8605 265.818C47.6805 265.818 49.1105 266.572 50.1765 268.08V262.828C50.1765 262.022 49.9685 261.554 49.5785 261.372C49.3705 261.294 48.9285 261.216 48.2785 261.216C48.0185 261.216 47.8625 261.086 47.8625 260.8C47.8625 260.566 48.0185 260.41 48.2785 260.41C49.3705 260.384 50.4365 260.28 51.4245 260.098C51.7105 260.046 51.8665 260.176 51.8665 260.488V276.348C51.8665 277.154 52.1005 277.648 52.5685 277.83C52.8545 277.934 53.2185 277.986 53.7385 278.012C53.9985 278.012 54.1545 278.142 54.1545 278.376ZM62.4292 266.624C61.1552 266.624 60.1152 267.144 59.3352 268.236C58.5812 269.302 58.1912 270.706 58.1912 272.422C58.1912 274.242 58.6072 275.672 59.4392 276.712C60.1932 277.7 61.2072 278.168 62.4292 278.168C63.9892 278.168 65.1072 277.492 65.8352 276.14C66.4072 275.074 66.6932 273.852 66.6932 272.448C66.6932 270.602 66.2772 269.172 65.4452 268.106C64.6652 267.092 63.6772 266.624 62.4292 266.624ZM62.4292 265.714C64.1452 265.714 65.6012 266.286 66.7452 267.456C67.9932 268.704 68.6172 270.342 68.6172 272.37C68.6172 274.502 67.9932 276.192 66.7452 277.44C65.5752 278.584 64.1452 279.156 62.4292 279.156C60.7392 279.156 59.2832 278.584 58.1392 277.44C56.8912 276.192 56.2672 274.528 56.2672 272.422C56.2672 270.342 56.9172 268.704 58.1652 267.43C59.3092 266.286 60.7392 265.714 62.4292 265.714ZM88.8427 260.774C88.8427 261.008 88.7127 261.138 88.4527 261.164C87.8547 261.242 87.3867 261.346 87.0487 261.476C86.5547 261.684 86.2947 262.256 86.2947 263.218V274.372C86.2947 277.856 84.8387 279.598 81.9007 279.598C80.8607 279.598 79.9247 279.338 79.1707 278.766C78.2867 278.142 77.8447 277.362 77.8447 276.53C77.8447 275.49 78.3387 274.944 79.2747 274.944C80.1847 274.944 80.6267 275.36 80.6267 276.218C80.6267 276.972 80.2887 277.388 79.5867 277.492C79.8727 278.272 80.6007 278.662 81.7707 278.662C82.9407 278.662 83.7207 278.142 84.1367 277.05C84.3447 276.504 84.4487 275.464 84.4487 273.904V263.218C84.4487 262.334 84.2147 261.762 83.7727 261.528C83.4347 261.346 82.8887 261.216 82.0827 261.164C81.8227 261.138 81.6667 261.008 81.6667 260.748C81.6667 260.54 81.8227 260.41 82.0827 260.41H88.4527C88.7127 260.41 88.8427 260.54 88.8427 260.774ZM95.7244 271.33H102.354L99.0264 262.984L95.7244 271.33ZM108.932 278.376C108.932 278.61 108.802 278.74 108.516 278.74H102.536C102.276 278.74 102.12 278.61 102.12 278.35C102.12 278.142 102.276 278.012 102.536 278.012C103.784 277.96 104.408 277.648 104.408 277.102C104.408 276.686 104.304 276.27 104.148 275.854L102.692 272.318H95.3604L93.9564 275.984C93.7484 276.504 93.6704 276.894 93.6704 277.128C93.6704 277.674 94.2684 277.96 95.5164 278.012C95.7764 278.012 95.9324 278.168 95.9324 278.428C95.9324 278.636 95.8024 278.74 95.5164 278.74H90.2384C89.9524 278.74 89.8224 278.61 89.8224 278.35C89.8224 278.142 89.9524 278.012 90.2384 278.012H89.9784C91.2264 278.012 92.1364 277.336 92.6824 275.958L98.8704 260.436C98.9744 260.228 99.1044 260.124 99.3384 260.124H99.3644C99.5984 260.124 99.7284 260.228 99.8324 260.436L106.15 276.114C106.592 277.206 107.398 277.856 108.542 277.986C108.802 278.012 108.932 278.142 108.932 278.376ZM114.461 263.244V269.64H116.983C120.987 269.64 122.989 268.262 122.989 265.48C122.989 262.672 121.169 261.268 117.581 261.268H116.775C116.307 261.268 115.891 261.32 115.527 261.398C114.825 261.606 114.461 262.204 114.461 263.244ZM110.015 260.774C110.015 260.54 110.171 260.41 110.431 260.41H118.153C120.857 260.41 122.781 261.06 123.899 262.308C124.653 263.14 125.017 264.154 125.017 265.324C125.017 268.86 122.599 270.628 117.737 270.628H114.461V275.984C114.461 276.842 114.695 277.388 115.189 277.648C115.501 277.83 116.047 277.934 116.853 277.986C117.113 278.012 117.243 278.168 117.243 278.428C117.243 278.636 117.113 278.74 116.853 278.74H110.431C110.171 278.74 110.015 278.61 110.015 278.35C110.015 278.142 110.171 278.012 110.431 277.986C111.107 277.908 111.601 277.83 111.887 277.7C112.407 277.466 112.667 276.894 112.667 275.984V263.244C112.667 262.386 112.511 261.866 112.173 261.632C111.913 261.424 111.315 261.268 110.405 261.164C110.171 261.138 110.015 261.008 110.015 260.774ZM131.22 271.33H137.85L134.522 262.984L131.22 271.33ZM144.428 278.376C144.428 278.61 144.298 278.74 144.012 278.74H138.032C137.772 278.74 137.616 278.61 137.616 278.35C137.616 278.142 137.772 278.012 138.032 278.012C139.28 277.96 139.904 277.648 139.904 277.102C139.904 276.686 139.8 276.27 139.644 275.854L138.188 272.318H130.856L129.452 275.984C129.244 276.504 129.166 276.894 129.166 277.128C129.166 277.674 129.764 277.96 131.012 278.012C131.272 278.012 131.428 278.168 131.428 278.428C131.428 278.636 131.298 278.74 131.012 278.74H125.734C125.448 278.74 125.318 278.61 125.318 278.35C125.318 278.142 125.448 278.012 125.734 278.012H125.474C126.722 278.012 127.632 277.336 128.178 275.958L134.366 260.436C134.47 260.228 134.6 260.124 134.834 260.124H134.86C135.094 260.124 135.224 260.228 135.328 260.436L141.646 276.114C142.088 277.206 142.894 277.856 144.038 277.986C144.298 278.012 144.428 278.142 144.428 278.376ZM164.647 260.774C164.647 261.008 164.517 261.138 164.257 261.164C163.607 261.216 163.165 261.32 162.879 261.45C162.385 261.684 162.125 262.256 162.125 263.166V278.584C162.125 278.87 161.995 279 161.709 279H161.319C161.085 279 160.955 278.922 160.825 278.74L149.281 262.516H149.203V275.958C149.203 276.842 149.437 277.414 149.879 277.648C150.191 277.83 150.711 277.934 151.361 277.986C151.621 278.012 151.751 278.168 151.751 278.428C151.751 278.636 151.621 278.74 151.335 278.74H145.745C145.459 278.74 145.329 278.61 145.329 278.35C145.329 278.142 145.459 278.012 145.719 277.986C146.369 277.934 146.863 277.856 147.175 277.7C147.695 277.466 147.929 276.894 147.929 275.958V263.27C147.929 262.334 147.695 261.736 147.253 261.502C146.993 261.372 146.447 261.242 145.615 261.164C145.355 261.138 145.225 261.008 145.225 260.748C145.225 260.54 145.355 260.41 145.641 260.41H149.619C149.827 260.41 149.983 260.488 150.113 260.67L160.773 275.698H160.851V263.166C160.851 262.282 160.617 261.736 160.175 261.502C159.863 261.32 159.317 261.216 158.615 261.164C158.329 261.138 158.199 261.008 158.199 260.748C158.199 260.54 158.329 260.41 158.615 260.41H164.257C164.517 260.41 164.647 260.54 164.647 260.774ZM188.839 260.8L189.047 264.804C189.047 265.064 188.917 265.22 188.657 265.22C188.397 265.22 188.267 265.09 188.241 264.856C188.137 264.128 187.955 263.452 187.669 262.854C187.175 261.788 185.979 261.268 184.081 261.268H181.949V275.984C181.949 276.842 182.183 277.388 182.651 277.648C182.937 277.83 183.509 277.934 184.289 277.986C184.549 278.012 184.705 278.168 184.705 278.428C184.705 278.636 184.549 278.74 184.289 278.74H177.815C177.529 278.74 177.399 278.61 177.399 278.35C177.399 278.142 177.529 278.012 177.815 277.986C178.569 277.934 179.115 277.83 179.427 277.7C179.921 277.492 180.155 276.92 180.155 275.984V261.268H178.205C176.385 261.268 175.189 261.762 174.643 262.724C174.331 263.27 174.071 263.972 173.941 264.856C173.889 265.09 173.759 265.22 173.499 265.22C173.291 265.22 173.161 265.064 173.187 264.804L173.499 260.8C173.525 260.566 173.655 260.41 173.915 260.41H188.423C188.683 260.41 188.813 260.566 188.839 260.8ZM199.681 260.67C197.549 260.67 195.885 261.554 194.637 263.296C193.493 264.882 192.921 266.936 192.921 269.484C192.921 271.772 193.363 273.644 194.247 275.204C195.469 277.336 197.289 278.428 199.681 278.428C201.735 278.428 203.425 277.544 204.673 275.828C205.843 274.268 206.415 272.188 206.415 269.588C206.415 266.806 205.765 264.596 204.465 262.984C203.243 261.45 201.631 260.67 199.681 260.67ZM199.681 259.76C202.099 259.76 204.127 260.592 205.765 262.23C207.637 264.128 208.573 266.572 208.573 269.484C208.573 272.604 207.637 275.1 205.739 276.972C204.101 278.61 202.099 279.416 199.681 279.416C197.289 279.416 195.235 278.584 193.597 276.946C191.699 275.074 190.763 272.604 190.763 269.536C190.763 266.572 191.699 264.128 193.571 262.23C195.209 260.592 197.263 259.76 199.681 259.76ZM230.277 260.774C230.277 261.008 230.147 261.138 229.887 261.164C229.289 261.216 228.821 261.32 228.483 261.45C227.937 261.684 227.677 262.256 227.677 263.218V271.382C227.677 276.686 225.311 279.338 220.605 279.338C215.743 279.338 213.299 276.738 213.299 271.538V263.244C213.299 262.36 213.039 261.788 212.545 261.528C212.207 261.346 211.661 261.242 210.933 261.164C210.673 261.138 210.543 261.008 210.543 260.748C210.543 260.54 210.673 260.41 210.959 260.41H217.407C217.667 260.41 217.823 260.566 217.823 260.826C217.823 261.034 217.667 261.138 217.433 261.164C216.679 261.216 216.133 261.372 215.769 261.554C215.327 261.788 215.119 262.334 215.119 263.244V271.278C215.119 275.776 217.017 278.038 220.787 278.038C224.531 278.038 226.403 275.776 226.403 271.278V263.218C226.403 262.308 226.195 261.736 225.727 261.502C225.441 261.346 224.947 261.216 224.245 261.164C223.985 261.138 223.829 261.008 223.829 260.748C223.829 260.54 223.985 260.41 224.245 260.41H229.887C230.147 260.41 230.277 260.54 230.277 260.774ZM236.361 263.218V269.12H238.701C242.705 269.12 244.707 267.794 244.707 265.168C244.707 262.542 243.017 261.242 239.663 261.242H238.675C238.207 261.242 237.791 261.294 237.427 261.372C236.725 261.554 236.361 262.178 236.361 263.218ZM248.893 278.376C248.893 278.61 248.763 278.74 248.503 278.74H245.513C245.279 278.74 245.149 278.636 245.045 278.428C243.979 275.75 242.887 273.592 241.743 272.006C240.807 270.68 239.611 270.03 238.207 270.03H236.361V275.984C236.361 276.842 236.621 277.414 237.115 277.674C237.401 277.83 237.947 277.934 238.701 277.986C238.961 278.012 239.091 278.168 239.091 278.428C239.091 278.636 238.961 278.74 238.701 278.74H232.331C232.071 278.74 231.915 278.61 231.915 278.35C231.915 278.142 232.071 278.012 232.331 277.986C233.007 277.908 233.501 277.83 233.787 277.7C234.307 277.466 234.567 276.894 234.567 275.984V263.244C234.567 262.386 234.411 261.866 234.073 261.632C233.813 261.424 233.215 261.268 232.305 261.164C232.071 261.138 231.915 261.008 231.915 260.748C231.915 260.54 232.071 260.41 232.331 260.41H240.157C241.951 260.41 243.355 260.696 244.395 261.294C245.903 262.152 246.657 263.374 246.657 264.986C246.657 266.754 245.955 268.08 244.473 268.912C243.615 269.432 242.549 269.692 241.353 269.77V269.848C242.367 270.238 243.355 271.148 244.291 272.63C244.707 273.306 245.409 274.58 246.397 276.478C246.865 277.388 247.567 277.908 248.503 277.986C248.763 278.038 248.893 278.142 248.893 278.376ZM270.066 273.41H270.092C270.326 273.41 270.43 273.566 270.404 273.852L269.884 278.376C269.832 278.61 269.702 278.74 269.442 278.74H258.834C258.548 278.74 258.418 278.61 258.418 278.35V277.96C258.418 277.778 258.418 277.648 258.47 277.466C259.094 275.074 260.836 272.708 263.696 270.394L264.112 270.056C265.49 268.912 266.478 268.106 266.946 267.456C267.596 266.572 267.934 265.61 267.934 264.596C267.934 263.218 267.492 262.178 266.582 261.476C265.932 260.982 265.126 260.722 264.216 260.722C262.734 260.722 261.668 261.19 260.992 262.152C260.628 262.672 260.446 263.192 260.42 263.738C261.252 263.764 261.668 264.18 261.668 264.96C261.668 265.818 261.252 266.234 260.42 266.234C259.406 266.234 258.886 265.636 258.886 264.492C258.886 263.296 259.38 262.23 260.342 261.268C261.356 260.28 262.656 259.76 264.294 259.76C265.828 259.76 267.102 260.15 268.142 260.956C269.338 261.892 269.962 263.14 269.962 264.726C269.962 265.818 269.65 266.806 269 267.716C268.402 268.574 267.232 269.562 265.49 270.68L264.762 271.148C261.954 272.968 260.29 274.97 259.796 277.154H266.686C267.752 277.154 268.454 276.894 268.766 276.426C269.078 276.036 269.364 275.178 269.624 273.8C269.676 273.54 269.832 273.41 270.066 273.41ZM280.393 260.67C279.145 260.67 278.131 261.346 277.377 262.698C276.441 264.336 275.999 266.65 275.999 269.588C275.999 272.032 276.337 274.06 276.987 275.62C277.793 277.492 278.911 278.454 280.393 278.454C281.901 278.454 283.045 277.466 283.799 275.49C284.423 273.982 284.709 272.006 284.709 269.614C284.709 267.066 284.397 264.986 283.721 263.426C282.967 261.606 281.849 260.67 280.393 260.67ZM280.289 259.76C282.447 259.76 284.059 260.774 285.203 262.776C286.191 264.544 286.711 266.806 286.711 269.588C286.711 272.37 286.165 274.658 285.151 276.452C284.007 278.428 282.421 279.39 280.367 279.39C278.261 279.39 276.675 278.428 275.557 276.452C274.517 274.658 274.023 272.344 274.023 269.562C274.023 265.714 274.907 262.932 276.701 261.216C277.715 260.254 278.911 259.76 280.289 259.76ZM302.211 273.41H302.237C302.471 273.41 302.575 273.566 302.549 273.852L302.029 278.376C301.977 278.61 301.847 278.74 301.587 278.74H290.979C290.693 278.74 290.563 278.61 290.563 278.35V277.96C290.563 277.778 290.563 277.648 290.615 277.466C291.239 275.074 292.981 272.708 295.841 270.394L296.257 270.056C297.635 268.912 298.623 268.106 299.091 267.456C299.741 266.572 300.079 265.61 300.079 264.596C300.079 263.218 299.637 262.178 298.727 261.476C298.077 260.982 297.271 260.722 296.361 260.722C294.879 260.722 293.813 261.19 293.137 262.152C292.773 262.672 292.591 263.192 292.565 263.738C293.397 263.764 293.813 264.18 293.813 264.96C293.813 265.818 293.397 266.234 292.565 266.234C291.551 266.234 291.031 265.636 291.031 264.492C291.031 263.296 291.525 262.23 292.487 261.268C293.501 260.28 294.801 259.76 296.439 259.76C297.973 259.76 299.247 260.15 300.287 260.956C301.483 261.892 302.107 263.14 302.107 264.726C302.107 265.818 301.795 266.806 301.145 267.716C300.547 268.574 299.377 269.562 297.635 270.68L296.907 271.148C294.099 272.968 292.435 274.97 291.941 277.154H298.831C299.897 277.154 300.599 276.894 300.911 276.426C301.223 276.036 301.509 275.178 301.769 273.8C301.821 273.54 301.977 273.41 302.211 273.41ZM313.083 268.054C311.991 268.054 311.055 268.444 310.275 269.224C309.339 270.186 308.845 271.486 308.845 273.176C308.845 274.71 309.235 275.984 310.041 276.972C310.821 277.96 311.809 278.454 313.005 278.454C314.409 278.454 315.475 277.804 316.229 276.504C316.723 275.646 316.983 274.554 316.983 273.254C316.983 271.486 316.541 270.134 315.631 269.146C314.929 268.418 314.097 268.054 313.083 268.054ZM308.455 269.926H308.533C309.573 268.002 311.107 267.04 313.187 267.04C315.085 267.04 316.593 267.742 317.685 269.172C318.517 270.238 318.907 271.616 318.907 273.254C318.907 275.126 318.335 276.66 317.165 277.83C316.073 278.896 314.721 279.416 313.083 279.416C311.289 279.416 309.859 278.792 308.715 277.492C307.389 275.958 306.713 273.592 306.713 270.42C306.713 266.442 307.571 263.478 309.313 261.606C310.405 260.384 311.809 259.76 313.473 259.76C314.617 259.76 315.605 260.02 316.437 260.54C317.503 261.19 318.049 261.97 318.049 262.854C318.049 263.842 317.581 264.31 316.697 264.31C315.813 264.31 315.371 263.894 315.371 263.088C315.371 262.516 315.657 262.1 316.229 261.84C315.683 261.112 314.799 260.722 313.603 260.722C312.121 260.722 310.925 261.502 310.015 263.036C309.027 264.7 308.507 267.014 308.455 269.926Z" fill="black"/>
<path d="M141.783 165.173C141.783 163.169 141.282 161.61 140.28 160.497C139.278 159.272 137.831 158.66 135.938 158.66H30.561C28.6683 158.66 27.221 159.105 26.219 159.996C25.217 160.775 24.716 161.944 24.716 163.503C24.716 165.507 23.9367 167.121 22.378 168.346C20.8193 169.682 19.1493 170.35 17.368 170.35C15.1413 170.35 14.028 169.07 14.028 166.509V29.736C14.028 28.5113 14.863 27.899 16.533 27.899C18.537 27.899 20.1513 28.1773 21.376 28.734C22.712 29.2907 24.048 30.0143 25.384 30.905C26.72 31.7957 27.6663 32.241 28.223 32.241H135.771C136.773 32.241 137.719 32.0183 138.61 31.573C139.612 31.0163 140.503 30.404 141.282 29.736C141.95 29.1793 142.674 28.6783 143.453 28.233C144.232 27.6763 145.012 27.398 145.791 27.398C147.572 27.398 149.354 27.9547 151.135 29.068C153.028 30.1813 154.586 31.4617 155.811 32.909C157.147 34.3563 157.815 35.5253 157.815 36.416C157.815 37.1953 157.648 37.8077 157.314 38.253C156.98 38.587 156.479 39.0323 155.811 39.589C154.92 40.257 154.197 40.9807 153.64 41.76C153.195 42.5393 152.972 43.7083 152.972 45.267V163.503C152.972 165.618 152.193 167.288 150.634 168.513C149.075 169.738 147.35 170.35 145.457 170.35C143.898 170.35 142.896 169.849 142.451 168.847C142.006 167.956 141.783 166.732 141.783 165.173ZM24.716 148.139C24.716 149.92 25.217 151.368 26.219 152.481C27.3323 153.483 28.7797 153.984 30.561 153.984L136.439 154.151C138.332 154.151 139.779 153.65 140.781 152.648C141.783 151.535 142.284 150.087 142.284 148.306V42.595C142.284 40.7023 141.783 39.255 140.781 38.253C139.779 37.251 138.332 36.75 136.439 36.75H30.561C28.7797 36.75 27.3323 37.251 26.219 38.253C25.217 39.255 24.716 40.7023 24.716 42.595V148.139ZM102.705 124.926C102.705 122.922 102.204 121.363 101.202 120.25C100.2 119.025 98.7527 118.413 96.86 118.413H68.971C67.0783 118.413 65.631 118.858 64.629 119.749C63.627 120.528 63.126 121.697 63.126 123.256C63.126 125.26 62.3467 126.93 60.788 128.266C59.2293 129.491 57.5593 130.103 55.778 130.103C53.5513 130.103 52.438 128.823 52.438 126.262V65.14C52.438 63.9153 53.273 63.303 54.943 63.303C56.947 63.303 58.5613 63.5813 59.786 64.138C61.122 64.6947 62.458 65.4183 63.794 66.309C65.13 67.1997 66.0763 67.645 66.633 67.645H96.693C97.695 67.645 98.6413 67.4223 99.532 66.977C100.534 66.4203 101.425 65.808 102.204 65.14C102.872 64.5833 103.596 64.0823 104.375 63.637C105.154 63.0803 105.934 62.802 106.713 62.802C108.494 62.802 110.276 63.3587 112.057 64.472C113.95 65.5853 115.508 66.8657 116.733 68.313C118.069 69.7603 118.737 70.9293 118.737 71.82C118.737 72.5993 118.57 73.2117 118.236 73.657C117.902 73.991 117.401 74.4363 116.733 74.993C115.842 75.661 115.119 76.3847 114.562 77.164C114.117 77.9433 113.894 79.1123 113.894 80.671V123.256C113.894 125.371 113.115 127.041 111.556 128.266C109.997 129.491 108.272 130.103 106.379 130.103C104.82 130.103 103.818 129.658 103.373 128.767C102.928 127.765 102.705 126.485 102.705 124.926ZM63.126 107.892C63.126 109.673 63.627 111.121 64.629 112.234C65.7423 113.236 67.1897 113.737 68.971 113.737L97.361 113.904C99.2537 113.904 100.701 113.403 101.703 112.401C102.705 111.288 103.206 109.84 103.206 108.059V77.999C103.206 76.1063 102.705 74.659 101.703 73.657C100.701 72.655 99.2537 72.154 97.361 72.154H68.971C67.1897 72.154 65.7423 72.655 64.629 73.657C63.627 74.659 63.126 76.1063 63.126 77.999V107.892ZM183.867 37.585C183.644 37.251 183.533 36.6943 183.533 35.915C183.533 35.247 183.644 34.6903 183.867 34.245C184.201 33.7997 184.591 33.577 185.036 33.577C185.481 33.577 185.927 33.744 186.372 34.078C188.376 35.1913 190.213 36.416 191.883 37.752C192.551 38.1973 193.052 38.42 193.386 38.42C194.054 38.42 194.555 37.919 194.889 36.917C196.225 33.577 197.784 29.235 199.565 23.891C200.122 21.9983 201.068 20.6067 202.404 19.716C203.74 18.714 205.243 18.213 206.913 18.213C208.694 18.213 210.364 18.714 211.923 19.716C213.593 20.718 214.818 22.1653 215.597 24.058C215.82 24.392 215.931 24.9487 215.931 25.728C215.931 26.6187 215.653 27.2867 215.096 27.732C214.651 28.066 214.094 27.9547 213.426 27.398C212.09 26.2847 210.476 27.3423 208.583 30.571C206.468 34.245 203.517 38.8653 199.732 44.432C199.064 45.3227 198.897 46.3803 199.231 47.605L199.732 49.442C199.955 50.3327 200.066 51.0007 200.066 51.446C200.066 53.116 199.454 54.5077 198.229 55.621C197.116 56.623 195.835 57.124 194.388 57.124C192.718 57.124 191.605 56.3447 191.048 54.786C189.601 50.5553 188.376 47.271 187.374 44.933C186.483 42.4837 185.314 40.0343 183.867 37.585ZM278.389 21.052C278.389 19.8273 279.224 19.215 280.894 19.215C282.119 19.215 283.399 19.4933 284.735 20.05C286.182 20.6067 287.351 21.219 288.242 21.887C288.799 22.3323 289.467 22.7777 290.246 23.223C291.137 23.6683 291.86 23.891 292.417 23.891H300.6C301.936 23.891 302.882 23.6127 303.439 23.056C303.996 22.388 304.33 21.9983 304.441 21.887C306.111 20.1057 307.503 19.215 308.616 19.215C309.284 19.215 310.008 19.4377 310.787 19.883C313.348 21.3303 315.185 22.8333 316.298 24.392C317.523 25.8393 318.135 27.064 318.135 28.066C318.135 29.1793 317.912 30.0143 317.467 30.571C317.133 31.0163 316.354 31.5173 315.129 32.074L312.123 33.577C308.226 35.8037 305.276 37.8633 303.272 39.756C301.379 41.6487 300.266 42.762 299.932 43.096C298.707 44.2093 298.095 44.9887 298.095 45.434C298.095 45.768 298.373 46.0463 298.93 46.269C299.487 46.4917 299.876 46.6587 300.099 46.77C312.791 53.116 319.861 59.7403 321.308 66.643C321.531 67.645 321.642 68.981 321.642 70.651C321.642 74.5477 320.417 77.498 317.968 79.502C315.519 81.3947 312.457 82.341 308.783 82.341C306.111 82.341 303.383 81.84 300.6 80.838C297.817 79.836 295.423 78.5557 293.419 76.997C292.528 76.329 291.805 75.995 291.248 75.995C289.578 75.995 288.743 77.665 288.743 81.005V83.343C288.743 85.347 288.019 87.017 286.572 88.353C285.236 89.5777 283.733 90.19 282.063 90.19C280.95 90.19 280.059 89.856 279.391 89.188C278.723 88.4087 278.389 87.351 278.389 86.015V21.052ZM222.611 89.856C221.164 89.0767 219.939 87.9077 218.937 86.349C218.046 84.7903 217.601 83.2317 217.601 81.673C217.601 80.003 218.102 78.6113 219.104 77.498C220.217 76.2733 221.887 75.494 224.114 75.16L226.619 74.826C230.07 74.2693 231.796 72.2653 231.796 68.814V21.386C231.796 20.1613 232.575 19.549 234.134 19.549C235.247 19.549 236.528 19.9387 237.975 20.718C239.422 21.386 240.536 22.1097 241.315 22.889C242.985 24.3363 244.377 25.06 245.49 25.06H255.343C256.456 25.06 258.015 24.2807 260.019 22.722C260.798 22.1653 261.578 21.6643 262.357 21.219C263.248 20.6623 264.083 20.384 264.862 20.384C266.643 20.384 268.926 21.553 271.709 23.891C274.492 26.229 275.884 28.066 275.884 29.402C275.884 30.1813 275.717 30.7937 275.383 31.239C275.16 31.6843 274.771 32.1297 274.214 32.575C272.655 34.1337 271.709 36.0263 271.375 38.253V56.122C271.375 58.126 270.651 59.796 269.204 61.132C267.868 62.3567 266.421 62.969 264.862 62.969C263.86 62.969 263.025 62.635 262.357 61.967C261.689 61.299 261.355 60.3527 261.355 59.128C261.355 58.126 261.021 57.3467 260.353 56.79C259.685 56.122 258.683 55.788 257.347 55.788H247.327C245.546 55.788 244.154 56.289 243.152 57.291C242.261 58.293 241.816 59.7403 241.816 61.633V66.476C241.816 68.146 242.15 69.482 242.818 70.484C243.597 71.3747 244.711 71.82 246.158 71.82C246.826 71.82 247.383 71.7643 247.828 71.653L253.673 70.15C255.566 69.3707 256.011 68.4243 255.009 67.311L253.673 65.641C252.56 64.5277 252.003 63.47 252.003 62.468C252.003 61.2433 252.727 60.631 254.174 60.631C255.065 60.631 255.955 60.8537 256.846 61.299C260.743 63.303 263.749 65.14 265.864 66.81C268.091 68.48 270.039 70.985 271.709 74.325C272.488 75.8837 272.878 77.5537 272.878 79.335C272.878 81.4503 272.266 83.2873 271.041 84.846C269.928 86.2933 268.703 87.017 267.367 87.017C265.252 87.017 263.693 85.347 262.691 82.007C262.134 79.669 261.188 77.2753 259.852 74.826C259.629 74.158 259.24 73.7683 258.683 73.657C258.126 73.4343 257.514 73.49 256.846 73.824C246.715 78.2773 237.363 81.4503 228.79 83.343C227.231 83.677 226.118 84.2893 225.45 85.18C224.893 86.0707 224.838 86.9057 225.283 87.685C225.394 87.9077 225.45 88.186 225.45 88.52C225.45 89.0767 225.172 89.522 224.615 89.856C224.058 90.19 223.39 90.19 222.611 89.856ZM289.077 64.973C289.077 66.643 289.355 67.9233 289.912 68.814C290.58 69.5933 291.749 70.484 293.419 71.486C295.868 73.0447 298.652 73.824 301.769 73.824C304.33 73.824 306.445 73.156 308.115 71.82C309.896 70.3727 310.787 68.2573 310.787 65.474C310.787 62.9133 309.117 59.963 305.777 56.623C302.548 53.283 299.208 51.0007 295.757 49.776C292.862 48.774 291.415 47.5493 291.415 46.102C291.415 45.2113 292.083 44.1537 293.419 42.929C296.536 40.1457 299.208 37.1953 301.435 34.078C302.103 33.076 302.437 32.241 302.437 31.573C302.437 30.4597 301.769 29.6803 300.433 29.235C299.208 28.6783 297.705 28.4 295.924 28.4H294.588C292.807 28.4 291.415 28.901 290.413 29.903C289.522 30.905 289.077 32.3523 289.077 34.245V64.973ZM181.362 93.53C186.149 91.6373 190.937 88.687 195.724 84.679C200.623 80.5597 204.798 75.8837 208.249 70.651C208.583 70.0943 208.75 69.5933 208.75 69.148C208.75 68.48 208.472 68.0347 207.915 67.812C207.358 67.478 206.746 67.478 206.078 67.812C200.957 69.3707 195.501 70.8737 189.712 72.321C187.374 72.8777 186.205 73.8797 186.205 75.327C186.205 75.8837 186.261 76.329 186.372 76.663L186.539 77.498C186.539 78.6113 186.038 79.168 185.036 79.168C184.479 79.168 183.756 78.8897 182.865 78.333C179.97 76.4403 178.523 73.824 178.523 70.484C178.523 68.814 178.968 67.3667 179.859 66.142C180.75 64.9173 181.974 64.1937 183.533 63.971L188.543 63.47C190.77 63.2473 192.44 63.0247 193.553 62.802C194.778 62.5793 195.724 62.0783 196.392 61.299C202.293 53.617 208.026 44.432 213.593 33.744C214.929 31.2947 216.989 30.07 219.772 30.07C221.665 30.07 223.446 30.7937 225.116 32.241C226.897 33.577 228.011 35.3583 228.456 37.585C228.567 37.919 228.623 38.3087 228.623 38.754C228.623 39.422 228.456 39.9787 228.122 40.424C227.788 40.758 227.398 40.925 226.953 40.925C226.508 40.925 226.118 40.758 225.784 40.424C225.339 39.9787 224.893 39.756 224.448 39.756C223.78 39.756 222.834 40.4797 221.609 41.927C215.82 48.8297 211.032 54.2293 207.247 58.126C206.468 58.9053 206.078 59.629 206.078 60.297C206.078 60.8537 206.412 61.132 207.08 61.132C207.637 61.132 208.249 61.0763 208.917 60.965C209.696 60.7423 210.364 60.5753 210.921 60.464C213.036 60.0187 214.317 59.0723 214.762 57.625C214.985 57.0683 215.207 56.3447 215.43 55.454C215.875 53.6727 216.71 52.3367 217.935 51.446C219.16 50.5553 220.496 50.11 221.943 50.11C223.724 50.11 225.339 50.6667 226.786 51.78C228.345 52.782 229.402 54.2293 229.959 56.122C230.182 57.0127 230.293 57.5693 230.293 57.792C230.293 58.5713 230.015 59.0723 229.458 59.295C229.013 59.5177 228.512 59.462 227.955 59.128C227.51 58.9053 227.231 58.794 227.12 58.794C226.563 58.794 226.062 59.128 225.617 59.796C225.283 60.464 224.838 61.4103 224.281 62.635C221.72 69.0923 216.488 75.7167 208.583 82.508C200.678 89.188 192.44 94.365 183.867 98.039C182.42 98.707 181.139 99.041 180.026 99.041C179.247 99.041 178.634 98.874 178.189 98.54C177.744 98.206 177.521 97.7607 177.521 97.204C177.521 96.536 177.855 95.868 178.523 95.2C179.191 94.532 180.137 93.9753 181.362 93.53ZM242.651 32.241C242.317 32.909 242.15 33.577 242.15 34.245C242.15 35.4697 242.651 36.4717 243.653 37.251C244.766 37.919 246.158 38.253 247.828 38.253H255.51C257.069 38.253 258.349 37.919 259.351 37.251C260.464 36.4717 261.021 35.414 261.021 34.078C261.021 33.2987 260.91 32.6863 260.687 32.241C259.908 30.571 258.349 29.736 256.011 29.736H247.327C244.878 29.736 243.319 30.571 242.651 32.241ZM241.816 46.937C241.816 48.273 242.261 49.3307 243.152 50.11C244.154 50.8893 245.546 51.279 247.327 51.279H255.844C257.625 51.279 259.017 50.8893 260.019 50.11C261.021 49.3307 261.522 48.273 261.522 46.937C261.522 45.601 261.021 44.599 260.019 43.931C259.128 43.1517 257.792 42.762 256.011 42.762H247.327C245.546 42.762 244.154 43.1517 243.152 43.931C242.261 44.599 241.816 45.601 241.816 46.937ZM197.561 100.043C196.448 100.154 195.557 99.876 194.889 99.208C194.332 98.4287 194.054 97.5937 194.054 96.703C194.054 95.701 194.332 94.866 194.889 94.198C195.557 93.53 196.448 93.2517 197.561 93.363L201.569 93.697C208.583 94.1423 213.983 94.365 217.768 94.365H237.975C239.868 94.365 241.315 93.864 242.317 92.862C243.319 91.7487 243.82 90.3013 243.82 88.52C243.82 86.0707 244.599 84.0667 246.158 82.508C247.828 80.838 249.943 80.003 252.504 80.003C254.508 80.003 256.122 80.3927 257.347 81.172C258.683 81.9513 259.351 82.7307 259.351 83.51C259.351 84.4007 258.46 84.9017 256.679 85.013C255.232 85.1243 254.508 86.2933 254.508 88.52C254.508 90.3013 255.009 91.7487 256.011 92.862C257.124 93.864 258.572 94.365 260.353 94.365H283.232C285.459 94.365 287.296 93.9197 288.743 93.029C290.302 92.027 291.916 90.691 293.586 89.021C296.035 86.5717 298.54 85.347 301.101 85.347C302.548 85.347 303.996 85.7923 305.443 86.683C307.113 87.7963 308.672 89.1323 310.119 90.691C311.344 92.1383 311.956 93.53 311.956 94.866C311.956 96.0907 311.455 97.0927 310.453 97.872C309.451 98.6513 308.004 99.041 306.111 99.041H217.768C213.315 99.041 207.915 99.2637 201.569 99.709L197.561 100.043ZM179.525 122.087C178.412 122.198 177.521 121.92 176.853 121.252C176.296 120.473 176.018 119.638 176.018 118.747C176.018 117.745 176.296 116.91 176.853 116.242C177.521 115.574 178.412 115.296 179.525 115.407L183.533 115.741C190.547 116.186 195.947 116.409 199.732 116.409H228.456C229.347 116.409 229.959 116.131 230.293 115.574C230.738 114.906 230.738 114.182 230.293 113.403C229.291 111.399 228.345 109.896 227.454 108.894C226.675 107.781 225.45 106.333 223.78 104.552C223.335 104.107 223.112 103.606 223.112 103.049C223.112 102.27 223.446 101.657 224.114 101.212C224.893 100.767 225.784 100.711 226.786 101.045C230.237 102.158 233.355 103.661 236.138 105.554C239.033 107.447 240.87 109.729 241.649 112.401L241.983 113.904C242.094 114.795 242.261 115.463 242.484 115.908C242.818 116.242 243.375 116.409 244.154 116.409H252.17C253.506 116.409 254.508 115.908 255.176 114.906C256.289 113.347 258.182 110.286 260.854 105.721C262.747 102.492 265.419 100.878 268.87 100.878C270.651 100.878 272.377 101.379 274.047 102.381C275.717 103.383 276.942 104.719 277.721 106.389C277.944 106.834 278.055 107.224 278.055 107.558C278.055 108.337 277.721 108.95 277.053 109.395C276.496 109.729 275.884 109.673 275.216 109.228C274.437 108.783 273.602 108.783 272.711 109.228C271.932 109.562 270.54 110.62 268.536 112.401L267.367 113.403C266.699 114.071 266.365 114.683 266.365 115.24C266.365 116.019 267.033 116.409 268.369 116.409H298.93C301.157 116.409 302.994 115.964 304.441 115.073C306 114.071 307.614 112.735 309.284 111.065C311.733 108.616 314.238 107.391 316.799 107.391C318.246 107.391 319.694 107.836 321.141 108.727C322.811 109.84 324.37 111.176 325.817 112.735C327.042 114.182 327.654 115.574 327.654 116.91C327.654 118.135 327.153 119.137 326.151 119.916C325.149 120.695 323.702 121.085 321.809 121.085H199.732C195.279 121.085 189.879 121.308 183.533 121.753L179.525 122.087ZM209.084 125.761C209.084 124.536 209.919 123.924 211.589 123.924C213.593 123.924 215.207 124.202 216.432 124.759C217.768 125.316 219.104 126.039 220.44 126.93C221.776 127.821 222.722 128.266 223.279 128.266H273.546C274.548 128.266 275.494 128.043 276.385 127.598C277.387 127.041 278.278 126.429 279.057 125.761C279.725 125.204 280.449 124.703 281.228 124.258C282.007 123.701 282.787 123.423 283.566 123.423C284.791 123.423 286.349 123.98 288.242 125.093C290.246 126.206 291.972 127.487 293.419 128.934C294.866 130.381 295.59 131.55 295.59 132.441C295.59 133.22 295.423 133.833 295.089 134.278C294.755 134.612 294.254 135.057 293.586 135.614C292.695 136.282 291.972 137.006 291.415 137.785C290.97 138.564 290.747 139.733 290.747 141.292V167.177C290.747 169.292 289.968 170.962 288.409 172.187C286.85 173.412 285.125 174.024 283.232 174.024C281.562 174.024 280.504 173.746 280.059 173.189C279.725 172.744 279.558 171.853 279.558 170.517C279.558 169.292 279.001 168.179 277.888 167.177C276.886 166.175 275.494 165.674 273.713 165.674H225.617C223.836 165.674 222.388 166.008 221.275 166.676C220.273 167.344 219.772 168.068 219.772 168.847C219.772 170.072 218.937 171.241 217.267 172.354C215.708 173.467 214.094 174.024 212.424 174.024C210.197 174.024 209.084 172.744 209.084 170.183V125.761ZM219.772 138.119C219.772 140.012 220.273 141.459 221.275 142.461C222.277 143.463 223.669 143.964 225.45 143.964L274.381 144.131C276.162 144.131 277.554 143.63 278.556 142.628C279.558 141.626 280.059 140.179 280.059 138.286C280.059 136.727 279.558 135.447 278.556 134.445C277.554 133.332 276.107 132.775 274.214 132.775H225.617C223.613 132.775 222.11 133.332 221.108 134.445C220.217 135.558 219.772 136.783 219.772 138.119ZM219.772 155.153C219.772 156.934 220.273 158.382 221.275 159.495C222.388 160.497 223.836 160.998 225.617 160.998L274.214 161.165C276.107 161.165 277.554 160.664 278.556 159.662C279.558 158.549 280.059 157.101 280.059 155.32C280.059 153.427 279.614 151.98 278.723 150.978C277.832 149.976 276.608 149.475 275.049 149.475L225.45 149.642C223.557 149.642 222.11 150.199 221.108 151.312C220.217 152.425 219.772 153.706 219.772 155.153Z" fill="black"/>
<path d="M66.656 235.464C66.656 236.04 66.272 236.36 65.632 236.36H50.144C49.504 236.36 49.184 236.04 49.184 235.4C49.184 234.888 49.504 234.568 50.208 234.568C52.896 234.44 54.304 233.928 54.304 232.904C54.304 232.392 53.536 231.24 52 229.32L38.688 213L34.4 217.096V229.576C34.4 231.688 34.976 233.032 36.128 233.672C36.896 234.12 38.24 234.376 40.16 234.504C40.8 234.568 41.184 234.952 41.184 235.592C41.184 236.104 40.8 236.36 40.16 236.36H24.48C23.84 236.36 23.52 236.04 23.52 235.4C23.52 234.888 23.84 234.568 24.48 234.504C26.208 234.376 27.424 234.184 28.192 233.8C29.408 233.288 30.048 231.88 30.048 229.576V198.28C30.048 196.104 29.408 194.696 28.192 194.056C27.424 193.672 26.08 193.352 24.16 193.096C23.52 193.032 23.2 192.712 23.2 192.072C23.2 191.56 23.52 191.24 24.16 191.24H40.16C40.8 191.24 41.184 191.624 41.184 192.264C41.184 192.776 40.8 193.032 40.16 193.096C38.496 193.288 37.152 193.544 36.32 193.864C35.04 194.44 34.4 195.848 34.4 198.216V214.216L52.256 197C53.152 196.168 53.536 195.464 53.536 194.888C53.536 193.864 52.256 193.224 49.76 193.032C49.056 193.032 48.736 192.712 48.736 192.072C48.736 191.56 49.056 191.24 49.696 191.24H63.392C64.032 191.24 64.416 191.624 64.416 192.264C64.416 192.776 64.096 193.032 63.456 193.16C60.704 193.608 58.08 194.888 55.776 197.128L41.824 210.312L58.592 230.472C60.448 232.84 62.88 234.12 65.696 234.504C66.336 234.568 66.656 234.888 66.656 235.464ZM88.781 218.12H105.101L96.909 197.576L88.781 218.12ZM121.293 235.464C121.293 236.04 120.973 236.36 120.269 236.36H105.549C104.909 236.36 104.525 236.04 104.525 235.4C104.525 234.888 104.909 234.568 105.549 234.568C108.621 234.44 110.157 233.672 110.157 232.328C110.157 231.304 109.901 230.28 109.517 229.256L105.933 220.552H87.885L84.429 229.576C83.917 230.856 83.725 231.816 83.725 232.392C83.725 233.736 85.197 234.44 88.269 234.568C88.909 234.568 89.293 234.952 89.293 235.592C89.293 236.104 88.973 236.36 88.269 236.36H75.277C74.573 236.36 74.253 236.04 74.253 235.4C74.253 234.888 74.573 234.568 75.277 234.568H74.637C77.709 234.568 79.949 232.904 81.293 229.512L96.525 191.304C96.781 190.792 97.101 190.536 97.677 190.536H97.741C98.317 190.536 98.637 190.792 98.893 191.304L114.445 229.896C115.533 232.584 117.517 234.184 120.333 234.504C120.973 234.568 121.293 234.888 121.293 235.464ZM150.069 235.464C150.069 236.04 149.75 236.36 149.11 236.36H133.429C132.789 236.36 132.405 236.04 132.405 235.4C132.405 234.888 132.789 234.568 133.365 234.504C135.157 234.312 136.373 234.12 137.141 233.8C138.358 233.288 138.934 231.88 138.934 229.576V198.152C138.934 195.912 138.422 194.504 137.333 193.992C136.565 193.544 135.221 193.288 133.365 193.096C132.789 193.032 132.405 192.712 132.405 192.072C132.405 191.56 132.789 191.24 133.429 191.24H149.11C149.75 191.24 150.069 191.624 150.069 192.264C150.069 192.776 149.75 193.032 149.11 193.096C147.51 193.288 146.294 193.544 145.525 193.864C144.182 194.44 143.477 195.848 143.477 198.152V229.576C143.477 231.752 144.054 233.096 145.205 233.672C146.038 234.12 147.318 234.376 149.11 234.504C149.75 234.568 150.069 234.888 150.069 235.464ZM208.303 235.464C208.303 236.04 207.919 236.36 207.279 236.36H191.791C191.151 236.36 190.831 236.04 190.831 235.4C190.831 234.888 191.151 234.568 191.855 234.568C194.543 234.44 195.951 233.928 195.951 232.904C195.951 232.392 195.183 231.24 193.647 229.32L180.335 213L176.047 217.096V229.576C176.047 231.688 176.623 233.032 177.775 233.672C178.543 234.12 179.887 234.376 181.807 234.504C182.447 234.568 182.831 234.952 182.831 235.592C182.831 236.104 182.447 236.36 181.807 236.36H166.127C165.487 236.36 165.167 236.04 165.167 235.4C165.167 234.888 165.487 234.568 166.127 234.504C167.855 234.376 169.071 234.184 169.839 233.8C171.055 233.288 171.695 231.88 171.695 229.576V198.28C171.695 196.104 171.055 194.696 169.839 194.056C169.071 193.672 167.727 193.352 165.807 193.096C165.167 193.032 164.847 192.712 164.847 192.072C164.847 191.56 165.167 191.24 165.807 191.24H181.807C182.447 191.24 182.831 191.624 182.831 192.264C182.831 192.776 182.447 193.032 181.807 193.096C180.143 193.288 178.799 193.544 177.967 193.864C176.687 194.44 176.047 195.848 176.047 198.216V214.216L193.903 197C194.799 196.168 195.183 195.464 195.183 194.888C195.183 193.864 193.903 193.224 191.407 193.032C190.703 193.032 190.383 192.712 190.383 192.072C190.383 191.56 190.703 191.24 191.343 191.24H205.039C205.679 191.24 206.063 191.624 206.063 192.264C206.063 192.776 205.743 193.032 205.103 193.16C202.351 193.608 199.727 194.888 197.423 197.128L183.471 210.312L200.239 230.472C202.095 232.84 204.527 234.12 207.343 234.504C207.983 234.568 208.303 234.888 208.303 235.464ZM260.317 192.136C260.317 192.712 259.997 193.032 259.357 193.096C256.541 193.48 254.173 195.336 252.125 198.664L240.348 218.12V229.576C240.348 231.624 240.989 232.968 242.205 233.672C242.909 234.12 244.253 234.376 246.108 234.504C246.749 234.568 247.069 234.952 247.069 235.592C247.069 236.104 246.749 236.36 246.108 236.36H230.236C229.532 236.36 229.212 236.04 229.212 235.4C229.212 234.888 229.532 234.568 230.236 234.504C232.092 234.376 233.437 234.12 234.14 233.8C235.357 233.224 235.932 231.816 235.932 229.576V218.696L223.708 198.088C221.916 195.08 219.612 193.416 216.86 193.096C216.22 193.032 215.9 192.712 215.9 192.072C215.9 191.56 216.22 191.24 216.924 191.24H232.413C233.116 191.24 233.437 191.624 233.437 192.264C233.437 192.776 233.116 193.032 232.413 193.032C229.404 193.224 227.868 193.928 227.868 195.144C227.868 196.04 228.252 197.128 229.02 198.472L238.748 215.56L249.5 197.32C249.884 196.68 250.14 195.976 250.14 195.4C250.14 194.056 248.477 193.288 245.212 193.096C244.509 193.032 244.188 192.712 244.188 192.072C244.188 191.56 244.509 191.24 245.212 191.24H259.292C259.997 191.24 260.317 191.56 260.317 192.136ZM294.017 191.88C288.769 191.88 284.673 194.056 281.601 198.344C278.785 202.248 277.377 207.304 277.377 213.576C277.377 219.208 278.465 223.816 280.641 227.656C283.649 232.904 288.129 235.592 294.017 235.592C299.073 235.592 303.233 233.416 306.305 229.192C309.185 225.352 310.593 220.232 310.593 213.832C310.593 206.984 308.993 201.544 305.793 197.576C302.785 193.8 298.817 191.88 294.017 191.88ZM294.017 189.64C299.969 189.64 304.961 191.688 308.993 195.72C313.601 200.392 315.905 206.408 315.905 213.576C315.905 221.256 313.601 227.4 308.929 232.008C304.897 236.04 299.969 238.024 294.017 238.024C288.129 238.024 283.073 235.976 279.041 231.944C274.369 227.336 272.065 221.256 272.065 213.704C272.065 206.408 274.369 200.392 278.977 195.72C283.009 191.688 288.065 189.64 294.017 189.64Z" fill="black"/>
</svg>
