<svg width="26" height="24" viewBox="0 0 26 24" fill="none" xmlns="http://www.w3.org/2000/svg">
<g clip-path="url(#clip0_4_83)">
<path d="M25.0115 7.07371C25.0115 7.07371 24.7648 5.44805 24.0049 4.73424C23.0428 3.79476 21.9671 3.79016 21.4737 3.7349C17.9408 3.49542 12.6365 3.49542 12.6365 3.49542H12.6266C12.6266 3.49542 7.32237 3.49542 3.78947 3.7349C3.29605 3.79016 2.22039 3.79476 1.25822 4.73424C0.498355 5.44805 0.256579 7.07371 0.256579 7.07371C0.256579 7.07371 0 8.9849 0 10.8915V12.6783C0 14.5849 0.251645 16.4961 0.251645 16.4961C0.251645 16.4961 0.498355 18.1217 1.25329 18.8356C2.21546 19.775 3.47862 19.7428 4.04112 19.8441C6.06415 20.0237 12.6316 20.079 12.6316 20.079C12.6316 20.079 17.9408 20.0698 21.4737 19.8349C21.9671 19.7796 23.0428 19.775 24.0049 18.8356C24.7648 18.1217 25.0115 16.4961 25.0115 16.4961C25.0115 16.4961 25.2632 14.5895 25.2632 12.6783V10.8915C25.2632 8.9849 25.0115 7.07371 25.0115 7.07371ZM10.0214 14.8474V8.22042L16.8454 11.5454L10.0214 14.8474Z" fill="black"/>
</g>
<defs>
<clipPath id="clip0_4_83">
<rect width="25.2632" height="23.5789" fill="white"/>
</clipPath>
</defs>
</svg>
